<svg width="350" height="347" viewBox="0 0 350 347" fill="none" xmlns="http://www.w3.org/2000/svg">
<g clip-path="url(#clip0_226_813)">
<path d="M245.247 345.829C244.881 346.222 244.501 346.611 244.116 347H200.233C199.872 346.621 199.516 346.232 199.16 345.829C199.146 345.814 199.131 345.794 199.117 345.78C194.349 340.376 191.347 332.522 189.476 324.24C189.356 323.738 189.25 323.231 189.144 322.719C188.653 320.391 188.254 318.039 187.927 315.706C187.869 315.303 187.812 314.899 187.763 314.496C187.321 311.145 187.023 307.847 186.83 304.752C186.806 304.353 186.782 303.965 186.758 303.576C186.406 297.413 186.402 291.235 186.748 285.072C186.748 285.072 186.806 285.072 186.917 285.077C187.239 285.092 188.014 285.126 189.154 285.195C192.295 285.392 198.222 285.884 205.193 287.046C205.573 287.11 205.958 287.179 206.342 287.247C212.238 288.244 218.054 289.685 223.743 291.558C224.099 291.681 224.45 291.804 224.806 291.927L224.811 291.952L229.174 314.348L230.983 294.413C232.421 295.077 233.821 295.786 235.163 296.543C235.539 296.755 235.904 296.967 236.265 297.183C239.333 298.962 242.119 301.209 244.525 303.846C258.837 320.071 255.772 334.574 245.247 345.829Z" fill="#F2F2F2"/>
<path d="M226.908 317.43L227.669 318.292C236.462 328.36 241.71 337.705 243.327 346.204C243.353 346.328 243.371 346.451 243.396 346.574L242.834 346.683L242.291 346.781C240.641 337.515 234.498 327.936 226.83 319.152C226.585 318.866 226.337 318.577 226.081 318.295C222.803 314.606 219.278 311.067 215.715 307.758C215.441 307.499 215.159 307.24 214.878 306.981C210.152 302.638 205.397 298.71 201.157 295.398C200.859 295.162 200.556 294.931 200.257 294.703C193.057 289.128 187.471 285.432 186.226 284.622C186.076 284.521 185.991 284.468 185.972 284.454L186.267 283.973L186.267 283.965L186.566 283.48C186.585 283.493 186.871 283.671 187.387 284.015C189.325 285.293 194.534 288.81 201.014 293.811C201.305 294.038 201.608 294.269 201.906 294.505C205.35 297.189 209.116 300.264 212.92 303.63C213.877 304.474 214.81 305.317 215.719 306.158C216.005 306.413 216.286 306.672 216.56 306.931C220.413 310.507 223.862 314.007 226.908 317.43Z" fill="white"/>
<path d="M205.606 286.091C205.477 286.411 205.337 286.731 205.193 287.046C204.094 289.478 202.688 291.753 201.012 293.812C200.767 294.108 200.517 294.408 200.257 294.703C199.555 295.495 198.807 296.261 198.015 297.001C194.774 300.003 190.932 302.246 186.758 303.576C186.623 303.62 186.493 303.664 186.359 303.704C186.383 304.093 186.407 304.476 186.431 304.875C186.566 304.836 186.695 304.796 186.83 304.752C191.259 303.386 195.336 301.029 198.765 297.853C199.604 297.078 200.402 296.258 201.157 295.397C201.416 295.107 201.666 294.806 201.907 294.506C203.699 292.303 205.192 289.861 206.342 287.248C206.477 286.933 206.612 286.618 206.742 286.298C206.357 286.229 205.977 286.16 205.606 286.091Z" fill="white"/>
<path d="M223.94 290.687C223.882 290.978 223.815 291.268 223.743 291.558C222.438 297.09 219.661 302.144 215.719 306.159C215.444 306.44 215.165 306.715 214.877 306.981C214.795 307.065 214.703 307.153 214.617 307.232C211.03 310.544 206.722 312.931 202.051 314.195C197.38 315.458 192.481 315.561 187.763 314.496C187.653 314.476 187.537 314.447 187.427 314.422C187.484 314.825 187.537 315.234 187.6 315.637C187.711 315.662 187.816 315.687 187.927 315.706C192.765 316.73 197.77 316.574 202.538 315.249C207.305 313.925 211.7 311.47 215.367 308.084C215.483 307.975 215.603 307.872 215.714 307.759C216.002 307.483 216.281 307.208 216.56 306.932C220.595 302.802 223.448 297.622 224.811 291.952C224.883 291.657 224.95 291.361 225.013 291.066C224.657 290.938 224.301 290.81 223.94 290.687Z" fill="white"/>
<path d="M235.163 295.712C235.168 295.987 235.168 296.268 235.163 296.544C235.083 304.321 232.135 311.78 226.908 317.429C226.639 317.724 226.36 318.01 226.081 318.295C225.778 318.595 225.475 318.895 225.162 319.181C220.322 323.643 214.209 326.395 207.724 327.032C201.239 327.669 194.725 326.157 189.144 322.719C189.048 322.668 188.955 322.612 188.865 322.552C188.981 323.074 189.096 323.585 189.221 324.097C189.308 324.146 189.389 324.196 189.476 324.24C195.219 327.515 201.819 328.871 208.353 328.118C214.887 327.364 221.027 324.539 225.912 320.037C226.225 319.747 226.538 319.456 226.831 319.151C227.12 318.871 227.394 318.585 227.668 318.29C232.968 312.572 236.028 305.06 236.265 297.183C236.275 296.918 236.279 296.652 236.279 296.386C235.914 296.155 235.539 295.933 235.163 295.712Z" fill="white"/>
<path d="M137.907 81.4835H53.3421C52.6383 81.4827 51.9636 81.1964 51.466 80.6873C50.9684 80.1783 50.6885 79.4881 50.6877 78.7682V13.0832C50.6885 12.3633 50.9684 11.6731 51.466 11.164C51.9636 10.6549 52.6383 10.3685 53.3421 10.3677H157.142C157.846 10.3685 158.52 10.6549 159.018 11.164C159.516 11.6731 159.795 12.3633 159.796 13.0832V59.0923C159.79 65.0288 157.481 70.7202 153.378 74.9179C149.274 79.1156 143.711 81.4768 137.907 81.4835Z" fill="white"/>
<path d="M137.907 81.7295H53.3421C52.5746 81.7286 51.8388 81.4163 51.2961 80.8612C50.7534 80.306 50.4481 79.5533 50.4472 78.7682V13.0832C50.448 12.298 50.7533 11.5453 51.296 10.9901C51.8387 10.4349 52.5745 10.1225 53.3421 10.1216H157.142C157.909 10.1225 158.645 10.4348 159.188 10.99C159.731 11.5452 160.036 12.298 160.037 13.0832V59.0923C160.03 65.094 157.696 70.8479 153.548 75.0917C149.399 79.3355 143.774 81.7227 137.907 81.7295V81.7295ZM53.3421 11.1058C52.8296 11.1065 52.3383 11.315 51.976 11.6857C51.6137 12.0564 51.4099 12.559 51.4093 13.0832V78.7682C51.4099 79.2924 51.6137 79.7949 51.976 80.1656C52.3384 80.5362 52.8296 80.7447 53.3421 80.7453H137.907C143.519 80.7388 148.9 78.4554 152.868 74.3961C156.836 70.3368 159.068 64.833 159.075 59.0923V13.0832C159.074 12.559 158.87 12.0564 158.508 11.6857C158.146 11.315 157.654 11.1065 157.142 11.1058H53.3421Z" fill="#CCCCCC"/>
<path d="M136.623 32.5506H73.8606C73.2844 32.5506 72.7318 32.3164 72.3244 31.8996C71.9169 31.4828 71.688 30.9176 71.688 30.3281C71.688 29.7387 71.9169 29.1734 72.3244 28.7566C72.7318 28.3399 73.2844 28.1057 73.8606 28.1057H136.623C137.199 28.1066 137.751 28.3411 138.157 28.7578C138.564 29.1745 138.793 29.7393 138.793 30.3281C138.793 30.917 138.564 31.4818 138.157 31.8985C137.751 32.3152 137.199 32.5497 136.623 32.5506V32.5506Z" fill="#CCCCCC"/>
<path d="M136.623 47.8606H73.8606C73.2844 47.8606 72.7318 47.6265 72.3244 47.2097C71.9169 46.7929 71.688 46.2276 71.688 45.6382C71.688 45.0488 71.9169 44.4835 72.3244 44.0667C72.7318 43.6499 73.2844 43.4158 73.8606 43.4158H136.623C137.199 43.4158 137.752 43.6499 138.159 44.0667C138.567 44.4835 138.796 45.0488 138.796 45.6382C138.796 46.2276 138.567 46.7929 138.159 47.2097C137.752 47.6265 137.199 47.8606 136.623 47.8606Z" fill="#CCCCCC"/>
<path d="M136.623 63.6084H73.8606C73.2844 63.6084 72.7318 63.3743 72.3244 62.9575C71.9169 62.5407 71.688 61.9754 71.688 61.386C71.688 60.7966 71.9169 60.2313 72.3244 59.8145C72.7318 59.3977 73.2844 59.1636 73.8606 59.1636H136.623C137.199 59.1636 137.752 59.3977 138.159 59.8145C138.567 60.2313 138.796 60.7966 138.796 61.386C138.796 61.9754 138.567 62.5407 138.159 62.9575C137.752 63.3743 137.199 63.6084 136.623 63.6084Z" fill="#CCCCCC"/>
<path d="M156.363 26.5432C163.528 26.5432 169.336 20.6013 169.336 13.2716C169.336 5.9419 163.528 0 156.363 0C149.197 0 143.389 5.9419 143.389 13.2716C143.389 20.6013 149.197 26.5432 156.363 26.5432Z" fill="#8A85E9"/>
<path d="M154.593 20.1788C154.369 20.1788 154.148 20.1254 153.947 20.0229C153.747 19.9203 153.573 19.7715 153.438 19.5881L149.899 14.7605C149.785 14.6054 149.702 14.4289 149.655 14.2411C149.608 14.0533 149.598 13.8578 149.625 13.6659C149.651 13.474 149.715 13.2894 149.812 13.1226C149.908 12.9558 150.036 12.81 150.187 12.6937C150.339 12.5774 150.512 12.4928 150.695 12.4447C150.879 12.3966 151.07 12.3859 151.257 12.4133C151.445 12.4408 151.626 12.5057 151.789 12.6045C151.952 12.7033 152.094 12.8339 152.208 12.989L154.523 16.1472L160.471 7.02142C160.683 6.69564 161.013 6.46948 161.389 6.39269C161.764 6.3159 162.154 6.39478 162.472 6.61196C162.791 6.82915 163.012 7.16686 163.087 7.5508C163.162 7.93474 163.085 8.33346 162.872 8.65924L155.794 19.5213C155.665 19.7178 155.493 19.8799 155.291 19.9943C155.089 20.1086 154.864 20.1717 154.633 20.1783C154.619 20.1785 154.606 20.1788 154.593 20.1788Z" fill="white"/>
<path d="M106.695 138.534H22.1293C16.326 138.527 10.7624 136.166 6.65884 131.968C2.55532 127.77 0.247087 122.079 0.24054 116.143V70.1332C0.241366 69.4133 0.521311 68.7231 1.01896 68.214C1.51661 67.7049 2.19134 67.4186 2.89512 67.4177H106.695C107.398 67.4186 108.073 67.7049 108.571 68.214C109.069 68.7231 109.348 69.4133 109.349 70.1332V135.818C109.348 136.538 109.069 137.228 108.571 137.738C108.073 138.247 107.398 138.533 106.695 138.534V138.534Z" fill="white"/>
<path d="M106.695 138.78H22.1293C16.2623 138.773 10.6375 136.386 6.48888 132.142C2.34028 127.898 0.00667061 122.144 0 116.143V70.1332C0.000869641 69.348 0.306171 68.5953 0.848921 68.04C1.39167 67.4848 2.12755 67.1725 2.89512 67.1716H106.695C107.462 67.1725 108.198 67.4848 108.741 68.04C109.284 68.5953 109.589 69.348 109.59 70.1332V135.818C109.589 136.603 109.284 137.356 108.741 137.911C108.198 138.467 107.462 138.779 106.695 138.78ZM2.89512 68.1559C2.38265 68.1565 1.89135 68.365 1.52898 68.7357C1.16661 69.1064 0.96276 69.609 0.962142 70.1332V116.143C0.968481 121.883 3.20062 127.387 7.16885 131.446C11.1371 135.506 16.5173 137.789 22.1293 137.796H106.695C107.207 137.795 107.698 137.586 108.061 137.216C108.423 136.845 108.627 136.342 108.628 135.818V70.1332C108.627 69.609 108.423 69.1064 108.061 68.7357C107.698 68.365 107.207 68.1565 106.695 68.1559H2.89512Z" fill="#CCCCCC"/>
<path d="M86.1762 89.6009H23.4136C22.8374 89.6009 22.2848 89.3667 21.8774 88.9499C21.4699 88.5332 21.241 87.9679 21.241 87.3784C21.241 86.789 21.4699 86.2237 21.8774 85.807C22.2848 85.3902 22.8374 85.156 23.4136 85.156H86.1762C86.7524 85.156 87.305 85.3902 87.7124 85.807C88.1199 86.2237 88.3488 86.789 88.3488 87.3784C88.3488 87.9679 88.1199 88.5332 87.7124 88.9499C87.305 89.3667 86.7524 89.6009 86.1762 89.6009Z" fill="#CCCCCC"/>
<path d="M86.1762 104.911H23.4136C22.8374 104.911 22.2848 104.677 21.8774 104.26C21.4699 103.843 21.241 103.278 21.241 102.688C21.241 102.099 21.4699 101.534 21.8774 101.117C22.2848 100.7 22.8374 100.466 23.4136 100.466H86.1762C86.7524 100.466 87.305 100.7 87.7124 101.117C88.1199 101.534 88.3488 102.099 88.3488 102.688C88.3488 103.278 88.1199 103.843 87.7124 104.26C87.305 104.677 86.7524 104.911 86.1762 104.911Z" fill="#CCCCCC"/>
<path d="M86.1762 120.659H23.4136C22.8374 120.659 22.2848 120.425 21.8774 120.008C21.4699 119.591 21.241 119.026 21.241 118.436C21.241 117.847 21.4699 117.282 21.8774 116.865C22.2848 116.448 22.8374 116.214 23.4136 116.214H86.1762C86.7524 116.214 87.305 116.448 87.7124 116.865C88.1199 117.282 88.3488 117.847 88.3488 118.436C88.3488 119.026 88.1199 119.591 87.7124 120.008C87.305 120.425 86.7524 120.659 86.1762 120.659Z" fill="#CCCCCC"/>
<path d="M106.812 84.1206C113.977 84.1206 119.786 78.1787 119.786 70.849C119.786 63.5193 113.977 57.5774 106.812 57.5774C99.647 57.5774 93.8384 63.5193 93.8384 70.849C93.8384 78.1787 99.647 84.1206 106.812 84.1206Z" fill="#8A85E9"/>
<path d="M105.042 77.7562C104.818 77.7562 104.597 77.7028 104.397 77.6003C104.197 77.4977 104.022 77.3489 103.888 77.1655L100.348 72.3378C100.235 72.1828 100.152 72.0063 100.105 71.8185C100.058 71.6307 100.048 71.4352 100.074 71.2433C100.101 71.0514 100.165 70.8668 100.261 70.7C100.358 70.5331 100.486 70.3874 100.637 70.2711C100.789 70.1548 100.961 70.0702 101.145 70.0221C101.328 69.974 101.52 69.9633 101.707 69.9907C101.895 70.0182 102.075 70.0831 102.238 70.1819C102.401 70.2807 102.544 70.4113 102.658 70.5664L104.973 73.7246L110.921 64.5988C111.133 64.273 111.463 64.0469 111.838 63.9701C112.214 63.8933 112.603 63.9722 112.922 64.1894C113.24 64.4065 113.461 64.7443 113.536 65.1282C113.612 65.5121 113.534 65.9109 113.322 66.2366L106.243 77.0987C106.115 77.2952 105.943 77.4573 105.741 77.5716C105.539 77.686 105.313 77.7491 105.082 77.7557C105.069 77.7559 105.056 77.7562 105.042 77.7562Z" fill="white"/>
<path d="M212.061 199.759H93.7349C87.9316 199.753 82.3679 197.391 78.2644 193.194C74.1609 188.996 71.8527 183.305 71.8461 177.368V109.696C71.8472 108.768 72.208 107.878 72.8495 107.222C73.491 106.566 74.3607 106.196 75.2679 106.195H212.061C212.968 106.196 213.838 106.566 214.479 107.222C215.121 107.878 215.482 108.768 215.483 109.696V196.259C215.482 197.187 215.121 198.077 214.479 198.733C213.838 199.389 212.968 199.758 212.061 199.759V199.759Z" fill="white"/>
<path d="M212.061 200.005H93.7349C87.8679 199.999 82.2431 197.611 78.0945 193.368C73.9459 189.124 71.6123 183.37 71.6056 177.368V109.696C71.6067 108.702 71.9929 107.75 72.6795 107.048C73.366 106.345 74.2969 105.95 75.2679 105.949H212.061C213.032 105.95 213.963 106.345 214.649 107.048C215.336 107.75 215.722 108.702 215.723 109.696V196.259C215.722 197.252 215.336 198.204 214.649 198.907C213.963 199.609 213.032 200.004 212.061 200.005V200.005ZM75.2679 106.933C74.552 106.934 73.8657 107.226 73.3595 107.743C72.8533 108.261 72.5686 108.963 72.5677 109.696V177.368C72.5741 183.109 74.8062 188.613 78.7744 192.672C82.7427 196.731 88.1229 199.015 93.7349 199.021H212.061C212.777 199.02 213.463 198.729 213.969 198.211C214.475 197.693 214.76 196.991 214.761 196.259V109.696C214.76 108.963 214.475 108.261 213.969 107.743C213.463 107.226 212.777 106.934 212.061 106.933H75.2679Z" fill="#CCCCCC"/>
<path d="M185.02 135.351H102.308C101.932 135.352 101.559 135.276 101.212 135.129C100.864 134.982 100.548 134.767 100.281 134.495C100.015 134.223 99.8039 133.9 99.6598 133.544C99.5157 133.188 99.4415 132.807 99.4415 132.422C99.4415 132.037 99.5157 131.656 99.6598 131.301C99.8039 130.945 100.015 130.622 100.281 130.35C100.548 130.078 100.864 129.862 101.212 129.715C101.559 129.568 101.932 129.493 102.308 129.493H185.02C185.397 129.493 185.769 129.568 186.117 129.715C186.465 129.862 186.781 130.078 187.047 130.35C187.314 130.622 187.525 130.945 187.669 131.301C187.813 131.656 187.887 132.037 187.887 132.422C187.887 132.807 187.813 133.188 187.669 133.544C187.525 133.9 187.314 134.223 187.047 134.495C186.781 134.767 186.465 134.982 186.117 135.129C185.769 135.276 185.397 135.352 185.02 135.351Z" fill="#CCCCCC"/>
<path d="M185.02 155.528H102.308C101.932 155.528 101.559 155.453 101.212 155.306C100.864 155.159 100.548 154.943 100.281 154.671C100.015 154.399 99.8039 154.076 99.6598 153.72C99.5157 153.365 99.4415 152.984 99.4415 152.599C99.4415 152.214 99.5157 151.833 99.6598 151.477C99.8039 151.121 100.015 150.798 100.281 150.526C100.548 150.254 100.864 150.039 101.212 149.892C101.559 149.745 101.932 149.669 102.308 149.67H185.02C185.78 149.67 186.508 149.978 187.045 150.528C187.582 151.077 187.884 151.822 187.884 152.599C187.884 153.376 187.582 154.121 187.045 154.67C186.508 155.219 185.78 155.528 185.02 155.528Z" fill="#CCCCCC"/>
<path d="M185.02 176.281H102.308C101.549 176.281 100.821 175.972 100.284 175.423C99.7469 174.874 99.4452 174.129 99.4452 173.352C99.4452 172.575 99.7469 171.83 100.284 171.281C100.821 170.732 101.549 170.423 102.308 170.423H185.02C185.397 170.423 185.769 170.498 186.117 170.645C186.465 170.792 186.781 171.008 187.047 171.28C187.314 171.552 187.525 171.875 187.669 172.23C187.813 172.586 187.887 172.967 187.887 173.352C187.887 173.737 187.813 174.118 187.669 174.474C187.525 174.829 187.314 175.152 187.047 175.424C186.781 175.696 186.465 175.912 186.117 176.059C185.769 176.206 185.397 176.281 185.02 176.281Z" fill="#CCCCCC"/>
<path d="M212.491 128.293C221.561 128.293 228.914 120.772 228.914 111.493C228.914 102.215 221.561 94.6929 212.491 94.6929C203.42 94.6929 196.068 102.215 196.068 111.493C196.068 120.772 203.42 128.293 212.491 128.293Z" fill="#8A85E9"/>
<path d="M210.25 120.237C209.967 120.237 209.687 120.169 209.433 120.039C209.18 119.91 208.959 119.721 208.789 119.489L204.308 113.378C204.165 113.182 204.06 112.958 204 112.72C203.941 112.483 203.928 112.235 203.961 111.992C203.995 111.749 204.076 111.516 204.198 111.305C204.32 111.093 204.482 110.909 204.674 110.762C204.866 110.614 205.084 110.507 205.317 110.446C205.549 110.385 205.791 110.372 206.028 110.407C206.266 110.441 206.494 110.524 206.701 110.649C206.907 110.774 207.088 110.939 207.231 111.135L210.163 115.133L217.691 103.581C217.96 103.169 218.378 102.884 218.853 102.787C219.328 102.69 219.821 102.79 220.224 103.065C220.626 103.34 220.906 103.767 221.001 104.252C221.097 104.738 221 105.242 220.731 105.654L211.77 119.405C211.608 119.653 211.39 119.859 211.135 120.003C210.879 120.148 210.593 120.228 210.301 120.236C210.284 120.236 210.267 120.237 210.25 120.237Z" fill="white"/>
<path d="M255.037 333.588L248.356 335.874L236.557 310.597L246.419 307.223L255.037 333.588Z" fill="#FFB6B6"/>
<path d="M258.908 339.63L237.363 345.525L237.272 345.246C236.523 342.955 236.691 341.978 237.745 339.816C238.261 338.751 238.978 337.802 239.854 337.022C240.731 336.243 241.75 335.649 242.853 335.275L242.853 335.275L245.79 330.874L254.132 331.416L256.012 330.773L258.908 339.63Z" fill="#2F2E41"/>
<path d="M271.546 340.014H264.501L261.148 312.215L271.547 312.215L271.546 340.014Z" fill="#FFB6B6"/>
<path d="M273.343 345.525L250.625 345.524V345.23C250.625 342.814 251.545 342.018 253.215 340.31C254.034 339.468 255.009 338.8 256.082 338.345C257.155 337.89 258.306 337.658 259.467 337.661H259.468L263.618 334.44L271.36 337.661L273.343 337.661L273.343 345.525Z" fill="#2F2E41"/>
<path d="M217.925 117.279C218.07 118.034 218.375 118.747 218.819 119.369C219.263 119.99 219.834 120.504 220.493 120.875C221.152 121.246 221.883 121.465 222.633 121.516C223.384 121.567 224.136 121.449 224.838 121.17L232.971 129.857L239.337 126.088L227.683 113.986C227.147 112.812 226.209 111.879 225.046 111.366C223.883 110.852 222.577 110.793 221.374 111.199C220.171 111.605 219.156 112.448 218.52 113.568C217.884 114.689 217.673 116.009 217.925 117.279V117.279Z" fill="#FFB6B6"/>
<path d="M270.565 160.957L274.231 157.076L253.027 136.987L231.685 117.493L225.774 126.037L248.138 147.392L270.565 160.957Z" fill="#E4E4E4"/>
<path d="M257.536 292.795C257.536 287.918 257.63 284.439 257.706 281.644C257.928 273.463 257.987 271.264 254.927 257.177L254.141 253.559L249.506 267.783C248.026 272.32 247.269 277.072 247.266 281.855L254.412 325.718H239.806L229.108 278.298L229.103 263.793C228.16 262.795 227.634 261.462 227.634 260.074C227.634 258.687 228.16 257.353 229.103 256.356L232.657 234.624L236.254 205.337H275.658C275.658 205.337 282.612 220.082 275.701 234.708L275.7 292.813L272.13 332.989H261.107L257.536 292.795Z" fill="#2F2E41"/>
<path d="M273.248 208.882L236.392 205.74L236.201 205.724L239.142 151.565C239.315 148.16 240.483 144.886 242.495 142.168C244.507 139.449 247.27 137.411 250.427 136.317V132.527C250.428 131.588 250.793 130.689 251.442 130.026C252.09 129.362 252.969 128.989 253.886 128.988H259.271C259.914 128.986 260.545 129.168 261.092 129.514C261.638 129.86 262.08 130.355 262.365 130.944L264.998 136.332L274.956 144.481C279.874 148.505 275.916 188.858 275.703 190.987L278.111 203.305C278.244 203.982 278.227 204.682 278.064 205.352C277.901 206.023 277.595 206.648 277.167 207.183C276.739 207.718 276.201 208.149 275.591 208.446C274.981 208.743 274.314 208.897 273.639 208.899C273.509 208.899 273.379 208.893 273.248 208.882Z" fill="#E4E4E4"/>
<path d="M234.218 223.182C234.801 222.695 235.272 222.084 235.599 221.391C235.925 220.698 236.099 219.94 236.109 219.17C236.118 218.401 235.962 217.638 235.652 216.937C235.342 216.236 234.886 215.613 234.315 215.111L237.972 203.679L231.723 199.711L226.78 215.93C226.021 216.967 225.659 218.253 225.764 219.544C225.869 220.835 226.434 222.042 227.35 222.936C228.267 223.83 229.473 224.348 230.738 224.394C232.004 224.439 233.242 224.008 234.218 223.182V223.182Z" fill="#FFB6B6"/>
<path d="M247.071 145.463L241.997 143.733L234.668 177.181L227.919 210.445L238.071 211.973L245.943 176.604L247.071 145.463Z" fill="#E4E4E4"/>
<path d="M252.612 125.527C259.297 125.527 264.717 119.983 264.717 113.144C264.717 106.305 259.297 100.761 252.612 100.761C245.927 100.761 240.507 106.305 240.507 113.144C240.507 119.983 245.927 125.527 252.612 125.527Z" fill="#FFB6B6"/>
<path d="M236.325 107.08C236.437 105.906 236.765 104.765 237.294 103.717C237.86 104.976 239.625 105.195 240.833 104.568C242.041 103.942 242.85 102.752 243.714 101.684C245.992 98.8672 249.125 96.5822 252.675 96.166C256.226 95.7498 260.14 97.5833 261.482 100.972C262.084 100.117 263.368 100.022 264.277 100.519C265.154 101.085 265.839 101.915 266.237 102.895C267.131 104.77 267.636 106.815 267.721 108.899C267.806 110.984 267.468 113.064 266.73 115.009C265.235 118.879 261.542 124.094 257.733 125.555C255.42 126.442 253.085 125.306 250.625 125.555C250.754 122.809 251.274 119.421 251.403 116.675C251.474 115.171 251.484 113.489 250.48 112.388C250.172 112.089 249.803 111.862 249.4 111.725C248.997 111.588 248.57 111.543 248.148 111.593C247.726 111.644 247.32 111.788 246.959 112.017C246.598 112.245 246.29 112.552 246.058 112.916C245.934 112.062 245.652 111.24 245.228 110.494C245.01 110.124 244.695 109.824 244.32 109.627C243.944 109.43 243.522 109.344 243.101 109.38C242.074 109.552 241.44 110.63 240.497 111.082C239.962 111.302 239.374 111.349 238.812 111.217C238.25 111.085 237.741 110.78 237.353 110.344C236.975 109.899 236.69 109.38 236.513 108.819C236.337 108.258 236.273 107.667 236.325 107.08V107.08Z" fill="#2F2E41"/>
<path opacity="0.1" d="M254.179 176.454L239.963 205.539H250.625L254.179 176.454Z" fill="black"/>
<path d="M349.461 346.414C349.461 346.491 349.447 346.568 349.418 346.639C349.389 346.71 349.347 346.775 349.294 346.829C349.241 346.884 349.177 346.927 349.108 346.956C349.038 346.985 348.964 347 348.889 347H77.4249C77.2731 347 77.1274 346.938 77.0201 346.829C76.9127 346.719 76.8524 346.57 76.8524 346.414C76.8524 346.259 76.9127 346.11 77.0201 346C77.1274 345.891 77.2731 345.829 77.4249 345.829H348.889C348.964 345.829 349.038 345.844 349.108 345.873C349.177 345.902 349.241 345.945 349.294 346C349.347 346.054 349.389 346.119 349.418 346.19C349.447 346.261 349.461 346.337 349.461 346.414V346.414Z" fill="#CACACA"/>
</g>
<defs>
<clipPath id="clip0_226_813">
<rect width="349.461" height="347" fill="white"/>
</clipPath>
</defs>
</svg>
