<svg width="283" height="347" viewBox="0 0 283 347" fill="none" xmlns="http://www.w3.org/2000/svg">
<g clip-path="url(#clip0_183_674)">
<path d="M123.046 329.22L122.149 333.304L122.365 333.549C122.317 333.674 122.269 333.799 122.211 333.923C121.735 335.044 121.19 336.131 120.58 337.179C119.774 338.572 118.872 339.915 117.937 341.233C117.424 341.962 116.896 342.686 116.368 343.405C116.354 343.43 116.338 343.453 116.32 343.475C116.326 343.449 116.334 343.424 116.344 343.4L116.171 343.36L115.178 338.876L114.876 339.585V339.59L114.387 340.764C114.425 340.978 114.464 341.188 114.512 341.398C114.507 341.393 114.507 341.383 114.502 341.378C114.497 341.373 114.497 341.373 114.497 341.368C114.435 341.228 114.368 341.093 114.305 340.954L113.557 342.741L112.041 342.382C111.245 341.952 110.448 341.518 109.657 341.068C98.8437 334.962 88.8317 327.168 82.0915 316.558C79.4123 312.331 77.3872 307.692 76.0901 302.812C73.5332 293.115 73.9745 282.68 78.6279 274.017C78.6279 274.016 78.628 274.016 78.6282 274.015C78.6285 274.015 78.6288 274.014 78.6293 274.014C78.6297 274.013 78.6303 274.013 78.6308 274.012C78.6314 274.012 78.6321 274.012 78.6327 274.012C78.7478 273.792 78.8678 273.573 78.9925 273.353C79.0836 273.603 79.17 273.852 79.266 274.102V274.107C80.5167 277.498 82.0263 280.778 83.7802 283.918C83.9145 284.163 84.0488 284.408 84.1928 284.647C88.4773 292.133 94.0601 298.726 100.657 304.09C100.675 304.108 100.694 304.125 100.715 304.14C100.737 304.16 100.761 304.178 100.787 304.195C102.255 305.393 103.772 306.52 105.339 307.575V307.58C106.563 308.409 107.819 309.193 109.095 309.937C111.816 311.515 114.775 313.033 117.318 314.925C119.789 316.757 121.871 318.939 122.979 321.86C123.065 322.095 123.147 322.33 123.219 322.564L121.242 328.91L123.046 329.22Z" fill="#F0F0F0"/>
<path d="M114.876 339.585V339.59L114.387 340.764C113.648 336.49 114.526 331.971 113.917 327.642C113.85 327.158 113.763 326.673 113.653 326.194C113.029 323.458 111.605 320.896 109.072 319.673C108.332 319.323 107.556 319.063 106.759 318.899C105.186 318.55 103.545 318.475 101.957 318.28C101.559 318.23 101.166 318.175 100.782 318.1C98.7286 317.769 96.7682 316.981 95.0347 315.789C92.9123 314.219 91.0628 312.284 89.5658 310.067C88.5765 308.675 87.6558 307.232 86.8073 305.743C86.6922 305.553 86.5866 305.358 86.4763 305.163C84.4909 301.584 82.8625 297.803 81.6166 293.879C80.9749 291.873 80.4368 289.833 80.0048 287.768C79.0433 283.254 78.5814 278.64 78.6279 274.017C78.6279 274.016 78.628 274.016 78.6283 274.015C78.6285 274.014 78.6289 274.014 78.6293 274.013C78.6298 274.013 78.6303 274.012 78.6309 274.012C78.6315 274.012 78.6321 274.012 78.6327 274.012C78.6279 273.802 78.6327 273.592 78.6375 273.383C78.6471 272.953 79.2852 273.048 79.2756 273.478C79.2708 273.687 79.266 273.892 79.266 274.102V274.107C79.2269 278.536 79.6565 282.957 80.5468 287.288C80.5948 287.508 80.6428 287.728 80.686 287.947C81.983 293.95 84.1626 299.708 87.1479 305.019C87.1815 305.078 87.2151 305.138 87.2535 305.198C87.9491 306.432 88.6974 307.63 89.4842 308.803C90.9297 311.062 92.7072 313.07 94.7516 314.755C96.472 316.094 98.4698 316.995 100.585 317.386C100.796 317.426 101.007 317.466 101.223 317.501C101.391 317.531 101.564 317.556 101.736 317.576C103.353 317.786 105.013 317.866 106.62 318.185C107.351 318.329 108.068 318.538 108.765 318.809C109.904 319.285 110.935 320.005 111.788 320.924C112.641 321.843 113.298 322.94 113.715 324.142C114.143 325.308 114.436 326.523 114.588 327.762C114.641 328.166 114.68 328.571 114.713 328.98V328.985C114.761 329.644 114.785 330.308 114.795 330.972C114.804 331.801 114.79 332.63 114.771 333.454C114.664 335.498 114.7 337.547 114.876 339.585V339.585Z" fill="white"/>
<path d="M87.0802 305.603C85.2522 306.569 83.1537 306.828 81.1594 306.333C79.1651 305.837 77.4049 304.62 76.1931 302.899C75.9491 302.55 76.459 302.139 76.7033 302.488C77.8288 304.093 79.4686 305.227 81.3266 305.684C83.1846 306.142 85.1385 305.893 86.8355 304.982C87.2046 304.785 87.4471 305.407 87.0802 305.603H87.0802Z" fill="white"/>
<path d="M100.523 317.586C101.858 313.451 101.648 308.944 99.9328 304.964C99.7625 304.57 100.359 304.316 100.529 304.709C102.307 308.855 102.517 313.545 101.117 317.845C100.984 318.255 100.39 317.993 100.523 317.586H100.523Z" fill="white"/>
<path d="M80.3606 287.35C81.1427 287.13 81.86 286.711 82.448 286.13C83.036 285.55 83.4763 284.827 83.7294 284.025C83.858 283.614 84.452 283.876 84.3243 284.284C84.0407 285.168 83.5535 285.966 82.9052 286.609C82.2569 287.252 81.4673 287.72 80.6053 287.971C80.5259 288.002 80.4383 288 80.3602 287.966C80.282 287.932 80.2193 287.869 80.1846 287.788C80.1526 287.706 80.1532 287.614 80.1861 287.532C80.2191 287.45 80.2818 287.385 80.3606 287.35H80.3606Z" fill="white"/>
<path d="M116.292 343.515C116.301 343.5 116.311 343.49 116.321 343.475C116.301 343.535 116.282 343.595 116.267 343.66L116.292 343.515Z" fill="#F0F0F0"/>
<path d="M130.554 312.778L129.882 315.224L125.756 314.421L124.389 318.809L124.154 319.563L123.219 322.564L121.242 328.91L123.046 329.22L122.149 333.304L122.365 333.549L122.432 333.624L122.878 334.133L125.593 337.219L118.167 343.835L116.977 343.55L116.368 343.405C116.354 343.43 116.338 343.453 116.32 343.475C116.326 343.449 116.334 343.424 116.344 343.4L116.171 343.36L115.178 338.876L114.876 339.585V339.59L114.387 340.764C114.425 340.978 114.464 341.188 114.512 341.398C114.507 341.393 114.507 341.383 114.502 341.378C114.497 341.373 114.497 341.373 114.497 341.368C114.435 341.228 114.368 341.093 114.305 340.954C113.355 338.891 112.449 336.799 111.609 334.682C109.54 329.584 107.917 324.301 106.759 318.899C106.711 318.665 106.658 318.43 106.62 318.19V318.185C105.916 314.693 105.488 311.146 105.339 307.58V307.575C105.263 305.623 105.282 303.668 105.397 301.718C105.7 296.678 106.764 291.72 108.549 287.024C108.558 286.999 108.568 286.979 108.577 286.954C111.998 277.997 118.018 270.227 126.203 266.088C126.543 265.908 126.893 265.739 127.244 265.579H127.253L127.258 265.574C127.479 265.474 127.695 265.379 127.915 265.279C127.843 265.539 127.767 265.799 127.699 266.063C126.731 269.552 126.038 273.117 125.627 276.723V276.728C125.589 277.003 125.555 277.288 125.526 277.567V277.572C124.621 286.27 125.275 295.067 127.455 303.516C127.459 303.541 127.469 303.561 127.474 303.586C128.288 306.723 129.317 309.794 130.554 312.778Z" fill="#F0F0F0"/>
<path d="M122.878 334.133C122.499 334.662 122.111 335.177 121.717 335.691C121.338 336.185 120.959 336.68 120.58 337.179C119.59 338.449 118.705 339.806 117.937 341.233C117.552 341.974 117.231 342.75 116.977 343.55L116.368 343.405C116.354 343.43 116.338 343.453 116.32 343.475C116.326 343.449 116.334 343.424 116.344 343.4C117.462 339.765 120.005 336.949 122.211 333.923C122.288 333.823 122.36 333.724 122.432 333.624L122.878 334.133Z" fill="white"/>
<path d="M128.074 265.559C127.949 265.724 127.819 265.893 127.699 266.063C126.764 267.326 125.88 268.63 125.047 269.973C123.563 272.342 122.245 274.82 121.103 277.387C121.012 277.587 120.921 277.792 120.835 277.996C118.391 283.605 116.799 289.575 116.114 295.692C116.104 295.752 116.1 295.807 116.095 295.867C115.937 297.295 115.834 298.728 115.788 300.166C115.635 302.873 115.892 305.59 116.551 308.214C116.646 308.559 116.752 308.898 116.867 309.228C117.156 310.036 117.517 310.813 117.947 311.55C118.255 312.087 118.598 312.603 118.973 313.092C119.199 313.392 119.434 313.687 119.683 313.971C119.827 314.136 119.976 314.301 120.124 314.466C120.249 314.59 120.369 314.72 120.494 314.845C121.789 316.153 123.219 317.367 124.389 318.809L124.154 319.563C123.027 318.075 121.573 316.842 120.264 315.544C119.441 314.739 118.693 313.857 118.028 312.908C117.942 312.778 117.851 312.648 117.769 312.513C117.325 311.837 116.941 311.12 116.623 310.371C116.459 309.997 116.311 309.612 116.176 309.213C115.393 306.631 115.036 303.93 115.121 301.224C115.136 299.491 115.236 297.759 115.418 296.036C115.438 295.812 115.462 295.592 115.49 295.367C115.977 291.266 116.864 287.228 118.138 283.314C119.751 278.349 121.97 273.621 124.74 269.244C125.531 267.99 126.371 266.767 127.258 265.574C127.373 265.409 127.493 265.249 127.618 265.084C127.872 264.745 128.328 265.219 128.074 265.559Z" fill="white"/>
<path d="M115.719 296.099C113.7 295.725 111.875 294.617 110.569 292.972C109.263 291.326 108.562 289.252 108.59 287.118C108.592 287.031 108.626 286.948 108.686 286.887C108.745 286.826 108.825 286.791 108.909 286.79C108.992 286.789 109.073 286.822 109.134 286.881C109.195 286.941 109.231 287.023 109.235 287.11C109.205 289.097 109.859 291.029 111.078 292.559C112.297 294.088 114.001 295.114 115.882 295.45C116.291 295.524 116.125 296.172 115.719 296.099V296.099Z" fill="white"/>
<path d="M119.52 314.09C122.978 311.626 125.417 307.896 126.35 303.643C126.442 303.222 127.066 303.392 126.974 303.813C125.995 308.237 123.449 312.114 119.845 314.67C119.501 314.913 119.178 314.333 119.52 314.09H119.52Z" fill="white"/>
<path d="M120.912 277.315C121.664 277.629 122.479 277.744 123.284 277.649C124.09 277.554 124.86 277.252 125.525 276.771C125.866 276.523 126.189 277.105 125.85 277.351C125.113 277.879 124.262 278.211 123.372 278.318C122.483 278.425 121.582 278.303 120.748 277.964C120.667 277.939 120.598 277.883 120.555 277.806C120.513 277.73 120.499 277.64 120.518 277.554C120.54 277.468 120.594 277.395 120.668 277.35C120.741 277.306 120.829 277.293 120.912 277.315V277.315Z" fill="white"/>
<path d="M189.301 55.8857C185.669 35.654 191.387 12.6369 207.281 0.390625C206.38 22.7531 213.108 44.7265 226.275 62.423C231.376 69.2286 237.731 76.2453 237.534 84.8748C237.411 90.2443 234.621 95.2465 230.944 99.015C227.267 102.784 222.738 105.501 218.263 108.175L217.566 109.303C204.448 93.9022 192.933 76.1175 189.301 55.8857Z" fill="#F0F0F0"/>
<path d="M207.57 0.699842C200.893 16.2537 199.094 33.602 202.429 50.2806C203.165 53.8492 204.209 57.4027 205.98 60.5732C207.73 63.6498 210.239 66.1828 213.247 67.9088C216.02 69.5769 219.043 70.9488 221.379 73.2895C223.841 75.7567 224.937 79.124 224.846 82.6422C224.734 86.9468 223.142 90.9529 221.456 94.8142C219.583 99.1014 217.572 103.524 217.693 108.344C217.708 108.928 216.836 108.917 216.822 108.334C216.61 99.9482 222.436 93.2132 223.734 85.1664C224.339 81.4117 223.861 77.4442 221.325 74.5337C219.107 71.9886 215.991 70.5711 213.169 68.9074C210.206 67.1606 207.683 65.0024 205.807 62.0103C203.889 58.9497 202.709 55.4312 201.889 51.8977C200.087 43.8708 199.51 35.599 200.177 27.3853C200.888 18.0066 203.136 8.82366 206.822 0.233826C207.051 -0.297731 207.797 0.171755 207.57 0.699842H207.57Z" fill="white"/>
<path d="M201.052 44.9759C198.287 45.1784 195.543 44.3516 193.31 42.643C191.078 40.9344 189.501 38.4553 188.862 35.6485C188.735 35.0801 189.577 34.8474 189.705 35.4165C190.295 38.0314 191.764 40.3405 193.846 41.9271C195.929 43.5137 198.487 44.2733 201.061 44.0688C201.62 44.0251 201.608 44.9324 201.052 44.9759V44.9759Z" fill="white"/>
<path d="M211.733 67.2559C215.486 62.8388 217.502 57.1118 217.378 51.2168C217.365 50.6327 218.237 50.6429 218.249 51.2262C218.367 57.361 216.258 63.3164 212.343 67.904C211.97 68.341 211.362 67.6905 211.733 67.2559V67.2559Z" fill="white"/>
<path d="M201.909 18.5698C202.995 18.7234 204.1 18.5941 205.125 18.1934C206.15 17.7927 207.064 17.1331 207.784 16.274C208.152 15.8323 208.76 16.4833 208.394 16.9221C207.594 17.8674 206.584 18.5945 205.452 19.0399C204.32 19.4852 203.101 19.6352 201.9 19.4768C201.786 19.4718 201.677 19.4216 201.597 19.3365C201.517 19.2513 201.471 19.1377 201.469 19.0186C201.471 18.8985 201.518 18.784 201.6 18.6999C201.683 18.6159 201.794 18.5691 201.909 18.5698V18.5698Z" fill="white"/>
<path d="M272.276 17.1253C272.053 17.4079 271.831 17.6905 271.611 17.9805C268.642 21.7961 265.976 25.8564 263.639 30.1214C263.454 30.4481 263.27 30.7822 263.094 31.1138C257.569 41.4515 253.936 52.7669 252.38 64.4849C251.765 69.1483 251.492 73.8537 251.563 78.5603C251.661 85.0603 252.264 92.0998 250.35 98.078C250.157 98.704 249.927 99.317 249.661 99.9134L218.942 110.1C218.861 110.087 218.782 110.081 218.701 110.068L217.492 110.533C217.472 110.29 217.457 110.038 217.437 109.796C217.424 109.655 217.419 109.512 217.407 109.372C217.401 109.277 217.396 109.183 217.385 109.098C217.383 109.066 217.381 109.035 217.381 109.011C217.371 108.926 217.37 108.846 217.361 108.768C217.27 107.36 217.185 105.95 217.115 104.535C217.113 104.528 217.113 104.528 217.118 104.518C216.59 93.7411 216.923 82.8235 218.837 72.3056C218.895 71.9892 218.95 71.6656 219.022 71.3445C219.91 66.6085 221.168 61.956 222.784 57.4334C223.677 54.9599 224.69 52.5351 225.818 50.1682C228.744 44.0582 232.576 38.4654 237.173 33.5948C246.337 23.8867 258.383 17.3372 271.289 17.131C271.62 17.1259 271.943 17.123 272.276 17.1253Z" fill="#F0F0F0"/>
<path d="M272.331 17.554C258.002 25.7886 246.53 38.5131 239.545 53.9199C238.068 57.2301 236.846 60.7218 236.427 64.3632C236.044 67.9159 236.582 71.5106 237.985 74.7736C239.235 77.8435 240.854 80.833 241.365 84.1655C241.904 87.6782 240.831 91.0538 238.723 93.8056C236.144 97.1725 232.556 99.374 228.975 101.4C225 103.649 220.836 105.92 218.145 109.845C217.819 110.321 217.129 109.766 217.455 109.291C222.137 102.463 230.684 100.736 236.375 95.1243C239.031 92.5059 240.944 89.0386 240.603 85.1254C240.304 81.7035 238.636 78.6192 237.345 75.5223C235.99 72.2705 235.224 68.9664 235.457 65.4023C235.696 61.7564 236.789 58.2076 238.178 54.8727C241.383 47.3346 245.707 40.3679 250.991 34.2277C256.984 27.1851 264.091 21.2615 272.003 16.7132C272.493 16.4319 272.817 17.2745 272.331 17.5539V17.554Z" fill="white"/>
<path d="M241.514 48.8211C239.189 47.2504 237.477 44.8709 236.682 42.1075C235.888 39.3441 236.063 36.3767 237.177 33.7353C237.404 33.2017 238.211 33.5439 237.984 34.0782C236.943 36.5359 236.78 39.3 237.524 41.8717C238.269 44.4434 239.873 46.6533 242.046 48.1026C242.518 48.4181 241.983 49.1348 241.514 48.8211H241.514Z" fill="white"/>
<path d="M237.154 73.3039C242.706 72.1288 247.628 68.8191 250.939 64.0346C251.267 63.5603 251.957 64.1146 251.63 64.5883C248.175 69.5605 243.046 72.9939 237.266 74.2035C236.715 74.3184 236.606 73.4182 237.154 73.3039H237.154Z" fill="white"/>
<path d="M257.474 28.2748C258.251 29.0775 259.208 29.6667 260.259 29.9894C261.31 30.312 262.421 30.358 263.493 30.1233C264.042 30.0011 264.15 30.9015 263.604 31.0229C262.419 31.2765 261.192 31.2241 260.031 30.8703C258.869 30.5165 257.809 29.8721 256.942 28.9933C256.853 28.9176 256.796 28.8097 256.781 28.6915C256.766 28.5734 256.795 28.4538 256.862 28.3572C256.933 28.2624 257.037 28.2006 257.152 28.1852C257.266 28.1697 257.382 28.202 257.474 28.2748V28.2748Z" fill="white"/>
<path d="M74.8741 31.7165C73.1767 30.4694 71.3196 29.169 69.2425 29.221C64.2153 29.3468 61.5049 37.0172 56.4828 36.7474C53.2802 36.5754 51.1541 33.1892 48.172 31.9613C44.2897 30.3629 39.3491 33.489 38.9256 37.812L39.4241 37.337C54.5156 41.1662 70.1764 41.9192 85.5427 39.5545C81.9866 36.9419 78.4304 34.3292 74.8741 31.7165Z" fill="#F0F0F0"/>
<path d="M84.2804 40.9427C93.9146 40.9427 101.725 32.814 101.725 22.7868C101.725 12.7595 93.9146 4.63086 84.2804 4.63086C74.6463 4.63086 66.8363 12.7595 66.8363 22.7868C66.8363 32.814 74.6463 40.9427 84.2804 40.9427Z" fill="#FF6582"/>
<path d="M125.113 19.3187C122.95 17.7294 120.583 16.0721 117.936 16.1384C111.529 16.2987 108.075 26.0739 101.675 25.7302C97.5932 25.511 94.8838 21.1955 91.0834 19.6307C86.1357 17.5936 79.8394 21.5777 79.2996 27.0869L79.935 26.4816C99.1677 31.3615 119.126 32.3212 138.709 29.3076C134.177 25.978 129.645 22.6483 125.113 19.3187Z" fill="#F0F0F0"/>
<path d="M282.024 201.578L263.512 98.4123C263.195 96.7117 262.333 95.1735 261.066 94.0499C259.799 92.9264 258.203 92.2842 256.54 92.2287C256.39 92.2252 256.24 92.2252 256.09 92.2287L243.48 92.6995L242.122 92.7515L235.828 92.9869L234.471 93.0354L230.423 93.1877L148.789 96.238C148.666 96.2449 148.54 96.2449 148.417 96.2414L130.124 95.8433L123.355 95.6979L123.138 95.6944L118.142 95.5836L74.604 94.6419L63.0609 94.3891L57.3692 94.268L56.0053 94.2368L49.5152 94.0983L48.1547 94.0672L41.5149 93.9252L40.1543 93.894L32.8592 93.7348L31.7149 93.7105L25.2081 93.5686L24.1802 93.5478H24.0306C22.3032 93.5551 20.6339 94.1978 19.3178 95.3624C18.0017 96.5269 17.1235 98.1382 16.8386 99.9115L0.0960488 206.965C-0.0739735 208.049 -0.0154474 209.159 0.267573 210.218C0.550593 211.276 1.05133 212.258 1.73512 213.095C2.4189 213.933 3.26939 214.605 4.22763 215.066C5.18588 215.527 6.22899 215.766 7.2847 215.766H103.435C104.85 215.77 106.228 216.243 107.367 217.116L109.19 218.522C110.447 219.484 111.965 220.006 113.525 220.011H170.189C171.146 220.013 172.095 219.818 172.979 219.437C173.864 219.055 174.667 218.495 175.342 217.788C176.496 216.587 178.036 215.873 179.666 215.783L275.245 210.541C276.281 210.485 277.294 210.199 278.216 209.702C279.137 209.205 279.946 208.509 280.588 207.66C281.23 206.811 281.69 205.829 281.938 204.78C282.186 203.731 282.215 202.639 282.024 201.578V201.578Z" fill="#CCCCCC"/>
<path d="M266.875 198.773L256.556 92.3671C256.553 92.3222 256.546 92.2737 256.54 92.2287C256.346 90.5285 255.54 88.9681 254.284 87.8628L232.086 68.616C231.121 67.7726 229.921 67.2739 228.663 67.193C218.507 66.5144 166.876 64.0007 147.818 81.2186C147.24 81.7424 146.558 82.1279 145.821 82.348C145.085 82.5681 144.31 82.6175 143.553 82.4928C142.794 82.3646 142.071 82.0675 141.433 81.6218C140.794 81.176 140.256 80.5921 139.854 79.9099C138.234 77.2811 136.111 75.0277 133.617 73.29C132.497 72.4809 131.331 71.7443 130.124 71.0846C129.056 70.4994 127.895 69.9316 126.631 69.3846C125.543 68.9137 124.382 68.4602 123.138 68.0274C116.688 65.7838 108.066 64.1081 96.5426 63.5472C91.7623 63.3118 86.5662 63.2806 81.1007 63.4503C76.1109 63.6026 70.8084 63.9176 65.3429 64.3885L65.2631 64.392L28.2818 87.8904C27.4528 88.4284 26.7521 89.1556 26.2328 90.0169C25.7136 90.8783 25.3893 91.8513 25.2846 92.8623L25.2081 93.5686L13.4654 202.772C13.364 203.7 13.4459 204.64 13.7062 205.533C13.9665 206.427 14.3996 207.256 14.979 207.969C15.5429 208.664 16.2452 209.224 17.0372 209.609C17.8292 209.993 18.6921 210.195 19.5663 210.199H110.687C111.899 210.205 113.072 210.638 114.017 211.428L117.995 214.745C119.032 215.611 120.315 216.096 121.645 216.123L161.71 216.805H161.806C162.818 216.803 163.812 216.534 164.697 216.022L172.424 211.556C173.129 211.147 173.914 210.911 174.72 210.863L261.077 206.117C261.919 206.07 262.741 205.839 263.492 205.439C264.242 205.04 264.903 204.48 265.431 203.797C265.981 203.101 266.391 202.299 266.639 201.436C266.887 200.574 266.967 199.668 266.875 198.773V198.773Z" fill="#E6E6E6"/>
<path d="M236.732 179.584L235.523 163.022L230.424 93.1898L229.666 82.8592C229.474 80.1458 228.318 77.6039 226.424 75.7291C224.529 73.8543 222.032 72.781 219.419 72.7184C200.733 72.2191 166.898 73.0978 150.295 84.6767C148.448 85.9832 146.208 86.5466 143.992 86.2618C141.776 85.9771 139.735 84.8636 138.249 83.1288C135.951 80.5037 133.193 78.3599 130.122 76.8126C127.875 75.6396 125.539 74.661 123.137 73.8867C116.109 71.55 107.241 70.1303 96.5314 69.6277L71.1154 69.4729H71.0722C69.3116 69.4746 67.6176 70.1739 66.3344 71.4287C65.0513 72.6835 64.2753 74.3996 64.1641 76.2285L63.0607 94.3881L58.2395 174.027C58.1493 175.51 58.3497 176.998 58.8285 178.398C59.3074 179.799 60.0547 181.083 61.0251 182.174C61.9955 183.265 63.1688 184.139 64.4736 184.743C65.7785 185.348 67.1878 185.67 68.616 185.69C111.278 186.35 129.916 195.721 138.042 203.461C139.77 205.111 141.978 206.114 144.315 206.311C146.653 206.508 148.986 205.888 150.947 204.549C165.699 194.493 190.222 191.697 209.743 191.263C215.72 191.133 221.227 191.218 225.842 191.388C227.326 191.443 228.803 191.172 230.179 190.592C231.555 190.012 232.797 189.136 233.825 188.022C234.853 186.908 235.644 185.58 236.144 184.126C236.645 182.672 236.846 181.124 236.732 179.584V179.584Z" fill="white"/>
<path d="M24.9386 202.683C24.9227 202.683 24.9061 202.682 24.8901 202.681C24.8012 202.674 24.7143 202.65 24.6345 202.608C24.5547 202.567 24.4835 202.509 24.425 202.439C24.3666 202.369 24.3219 202.288 24.2937 202.2C24.2654 202.112 24.2541 202.019 24.2604 201.926L31.6008 94.0506C31.606 93.9576 31.6291 93.8667 31.6686 93.7831C31.7081 93.6995 31.7633 93.625 31.8308 93.5639C31.8984 93.5028 31.977 93.4565 32.0621 93.4275C32.1471 93.3985 32.2369 93.3875 32.3261 93.3952C32.4151 93.4017 32.5019 93.4264 32.5817 93.4679C32.6615 93.5093 32.7327 93.5668 32.7912 93.6369C32.8497 93.707 32.8943 93.7883 32.9226 93.8764C32.9508 93.9645 32.9621 94.0574 32.9558 94.1501L25.6154 202.026C25.6035 202.204 25.527 202.371 25.4014 202.493C25.2758 202.615 25.1104 202.683 24.9386 202.683Z" fill="white"/>
<path d="M33.772 198.44C33.7561 198.44 33.7395 198.439 33.7236 198.438C33.6346 198.431 33.5477 198.407 33.4679 198.365C33.3881 198.324 33.3169 198.266 33.2585 198.196C33.2 198.126 33.1553 198.045 33.1271 197.957C33.0989 197.869 33.0875 197.776 33.0938 197.683L40.4342 89.8074C40.4395 89.7144 40.4625 89.6235 40.502 89.5399C40.5415 89.4563 40.5967 89.3818 40.6642 89.3207C40.7318 89.2597 40.8104 89.2133 40.8955 89.1843C40.9805 89.1553 41.0703 89.1444 41.1595 89.152C41.2485 89.1585 41.3354 89.1832 41.4152 89.2247C41.495 89.2662 41.5661 89.3236 41.6246 89.3937C41.6831 89.4638 41.7277 89.5452 41.756 89.6333C41.7842 89.7213 41.7955 89.8143 41.7892 89.9069L34.4489 197.782C34.4369 197.961 34.3604 198.128 34.2348 198.25C34.1092 198.372 33.9438 198.44 33.772 198.44V198.44Z" fill="white"/>
<path d="M41.9259 196.318C41.91 196.318 41.8934 196.317 41.8775 196.316C41.7885 196.309 41.7016 196.285 41.6218 196.243C41.542 196.202 41.4708 196.144 41.4124 196.074C41.3539 196.004 41.3092 195.923 41.281 195.835C41.2528 195.747 41.2415 195.654 41.2478 195.561L48.5881 87.6856C48.5934 87.5926 48.6164 87.5017 48.6559 87.4181C48.6954 87.3345 48.7506 87.26 48.8182 87.1989C48.8857 87.1379 48.9644 87.0915 49.0494 87.0625C49.1345 87.0335 49.2242 87.0225 49.3134 87.0302C49.4024 87.0367 49.4893 87.0614 49.5691 87.1029C49.6489 87.1443 49.72 87.2018 49.7785 87.2719C49.837 87.342 49.8816 87.4234 49.9099 87.5114C49.9381 87.5995 49.9494 87.6925 49.9432 87.7851L42.6028 195.661C42.5908 195.839 42.5143 196.006 42.3887 196.128C42.2631 196.25 42.0977 196.318 41.9259 196.318V196.318Z" fill="white"/>
<path d="M50.0799 192.075C50.0639 192.075 50.0473 192.074 50.0314 192.073C49.9424 192.066 49.8555 192.042 49.7757 192C49.6959 191.959 49.6248 191.901 49.5663 191.831C49.5078 191.761 49.4632 191.68 49.4349 191.592C49.4067 191.504 49.3954 191.411 49.4017 191.318L56.7421 83.4425C56.7473 83.3495 56.7703 83.2585 56.8098 83.1749C56.8493 83.0914 56.9045 83.0168 56.9721 82.9558C57.0397 82.8947 57.1183 82.8483 57.2033 82.8193C57.2884 82.7904 57.3782 82.7794 57.4673 82.787C57.5563 82.7935 57.6432 82.8183 57.723 82.8597C57.8028 82.9012 57.874 82.9586 57.9324 83.0287C57.9909 83.0988 58.0356 83.1802 58.0638 83.2683C58.0921 83.3563 58.1033 83.4493 58.0971 83.5419L50.7567 191.417C50.7447 191.596 50.6683 191.763 50.5426 191.885C50.417 192.007 50.2517 192.075 50.0799 192.075V192.075Z" fill="white"/>
<path d="M258.683 203.39C258.699 203.39 258.715 203.39 258.731 203.388C258.82 203.382 258.907 203.357 258.987 203.316C259.067 203.274 259.138 203.217 259.197 203.147C259.255 203.076 259.3 202.995 259.328 202.907C259.356 202.819 259.367 202.726 259.361 202.633L252.021 94.7579C252.016 94.6649 251.992 94.5739 251.953 94.4904C251.913 94.4068 251.858 94.3323 251.791 94.2712C251.723 94.2101 251.645 94.1637 251.559 94.1348C251.474 94.1058 251.385 94.0948 251.295 94.1025C251.207 94.109 251.12 94.1337 251.04 94.1751C250.96 94.2166 250.889 94.274 250.83 94.3441C250.772 94.4142 250.727 94.4956 250.699 94.5837C250.671 94.6717 250.659 94.7647 250.666 94.8573L258.006 202.733C258.018 202.911 258.095 203.078 258.22 203.2C258.346 203.322 258.511 203.39 258.683 203.39V203.39Z" fill="white"/>
<path d="M249.85 197.025C249.865 197.025 249.882 197.025 249.898 197.023C249.987 197.017 250.074 196.992 250.154 196.951C250.233 196.909 250.305 196.852 250.363 196.782C250.422 196.712 250.466 196.63 250.494 196.542C250.523 196.454 250.534 196.361 250.528 196.268L243.187 88.3929C243.182 88.2999 243.159 88.209 243.12 88.1254C243.08 88.0418 243.025 87.9673 242.957 87.9062C242.89 87.8451 242.811 87.7988 242.726 87.7698C242.641 87.7408 242.551 87.7298 242.462 87.7375C242.373 87.744 242.286 87.7687 242.206 87.8101C242.127 87.8516 242.055 87.909 241.997 87.9791C241.939 88.0492 241.894 88.1306 241.866 88.2187C241.837 88.3067 241.826 88.3997 241.832 88.4923L249.173 196.368C249.185 196.546 249.261 196.713 249.387 196.835C249.512 196.957 249.678 197.025 249.85 197.025V197.025Z" fill="white"/>
<path d="M241.696 189.953C241.712 189.953 241.728 189.952 241.744 189.951C241.833 189.944 241.92 189.92 242 189.878C242.08 189.837 242.151 189.779 242.209 189.709C242.268 189.639 242.312 189.558 242.341 189.47C242.369 189.382 242.38 189.289 242.374 189.196L235.033 81.3206C235.028 81.2276 235.005 81.1367 234.966 81.0531C234.926 80.9695 234.871 80.895 234.803 80.8339C234.736 80.7729 234.657 80.7265 234.572 80.6975C234.487 80.6685 234.397 80.6575 234.308 80.6652C234.219 80.6717 234.132 80.6964 234.053 80.7379C233.973 80.7794 233.902 80.8368 233.843 80.9069C233.785 80.977 233.74 81.0584 233.712 81.1464C233.683 81.2345 233.672 81.3275 233.678 81.4201L241.019 189.296C241.031 189.474 241.107 189.641 241.233 189.763C241.358 189.885 241.524 189.953 241.696 189.953V189.953Z" fill="white"/>
<path d="M74.9414 93.842C90.2577 88.756 107.345 90.1025 121.855 97.2677C125.995 99.3015 129.905 101.808 133.513 104.741C134.534 105.575 135.986 104.083 134.955 103.241C121.628 92.482 104.882 87.3711 88.0829 88.9349C83.4353 89.3678 78.847 90.3272 74.3994 91.7962C73.1544 92.2096 73.6865 94.2587 74.9413 93.842H74.9414Z" fill="#3F3D56"/>
<path d="M159.222 105.564C173.462 97.7739 190.515 96.0751 205.997 100.497C210.412 101.755 214.677 103.52 218.716 105.76C219.873 106.403 220.904 104.572 219.745 103.928C204.989 95.7332 187.275 93.8467 171.161 98.415C166.665 99.6917 162.317 101.475 158.193 103.732C157.031 104.368 158.061 106.199 159.222 105.564V105.564Z" fill="#3F3D56"/>
<path d="M159.222 119.708C173.462 111.918 190.515 110.219 205.997 114.641C210.412 115.899 214.677 117.664 218.716 119.905C219.873 120.547 220.904 118.716 219.745 118.073C204.989 109.878 187.275 107.991 171.161 112.559C166.665 113.836 162.317 115.619 158.193 117.876C157.031 118.512 158.061 120.344 159.222 119.708V119.708Z" fill="#3F3D56"/>
<path d="M220.244 133.094C220.254 132.912 220.212 132.73 220.123 132.574C220.033 132.417 219.9 132.292 219.741 132.214C207.92 125.772 194.517 123.159 181.256 124.712C181.173 124.719 181.097 124.732 181.007 124.739H181.004C180.922 124.747 180.841 124.76 180.761 124.777C172.874 125.722 165.223 128.177 158.193 132.017C158.04 132.112 157.913 132.247 157.825 132.408C157.737 132.57 157.691 132.752 157.691 132.938V159.324C157.694 159.486 157.732 159.646 157.802 159.791C157.873 159.936 157.974 160.062 158.098 160.16C158.223 160.258 158.367 160.325 158.52 160.357C158.673 160.388 158.831 160.383 158.982 160.342C159.295 160.248 159.607 160.158 159.927 160.072C167.033 158.07 174.328 156.882 181.682 156.53C181.839 156.523 181.995 156.516 182.158 156.509C188.148 156.241 194.149 156.466 200.105 157.181C200.229 157.188 200.354 157.202 200.477 157.222C200.783 157.257 201.096 157.295 201.402 157.337C201.525 157.35 201.642 157.364 201.755 157.385C202.946 157.541 204.126 157.718 205.311 157.908C207.021 158.192 208.73 158.508 210.44 158.857C210.547 158.877 210.656 158.905 210.766 158.926C213.511 159.494 216.242 160.152 218.96 160.879C219.111 160.919 219.269 160.924 219.422 160.891C219.576 160.859 219.72 160.791 219.844 160.692C219.968 160.594 220.069 160.467 220.14 160.322C220.21 160.176 220.248 160.016 220.25 159.854V133.135C220.251 133.121 220.249 133.107 220.244 133.094Z" fill="#3F3D56"/>
<path d="M182.855 126.151C182.108 125.77 181.252 125.692 180.453 125.931C180.1 126.069 179.776 126.278 179.502 126.547C179.227 126.816 179.007 127.139 178.853 127.497C178.576 128.184 178.398 128.91 178.326 129.651C178.284 129.943 178.281 130.31 178.563 130.447C178.665 130.485 178.776 130.494 178.882 130.472C178.989 130.45 179.088 130.398 179.168 130.322C179.313 130.173 179.433 129.999 179.522 129.807C180.011 129.016 180.684 128.365 181.478 127.916C182.273 127.466 183.163 127.232 184.067 127.236L184.82 127.548C184.228 126.993 183.567 126.523 182.855 126.151V126.151Z" fill="#FF6582"/>
<path d="M191 132.232C190.416 131.337 189.724 130.382 188.64 130.09C187.385 129.751 186.095 130.424 185.002 131.087C181.75 133.058 178.6 135.208 175.567 137.527L175.57 137.562L182.611 137.112C184.306 137.003 186.06 136.88 187.558 136.137C188.096 135.786 188.698 135.553 189.325 135.452C189.715 135.474 190.096 135.576 190.448 135.752C190.799 135.929 191.113 136.175 191.372 136.479C194.617 139.679 195.556 144.574 199.196 147.386C196.88 142.103 194.138 137.034 191 132.232V132.232Z" fill="white"/>
<path d="M182.159 156.509C181.996 156.516 181.84 156.523 181.683 156.53C180.549 156.106 179.387 155.731 178.211 155.406C177.45 155.193 176.676 155.002 175.901 154.84C175.024 154.642 174.141 154.486 173.258 154.352C171.576 154.097 169.881 153.949 168.182 153.906C168.169 153.908 168.156 153.906 168.144 153.902C168.131 153.898 168.12 153.891 168.11 153.882C168.101 153.873 168.093 153.862 168.088 153.85C168.083 153.838 168.08 153.824 168.08 153.811C168.08 153.797 168.083 153.784 168.088 153.772C168.093 153.759 168.101 153.748 168.11 153.739C168.12 153.73 168.131 153.724 168.144 153.719C168.156 153.715 168.169 153.714 168.182 153.715C168.399 153.715 168.617 153.722 168.827 153.737C170.53 153.802 172.227 153.974 173.91 154.253C174.787 154.401 175.663 154.578 176.533 154.776C177.321 154.96 178.109 155.165 178.884 155.392C179.992 155.717 181.083 156.089 182.159 156.509Z" fill="white"/>
<path d="M201.756 157.386C201.64 157.364 201.525 157.35 201.402 157.336C200.934 156.933 200.458 156.551 199.962 156.176C199.343 155.71 198.705 155.271 198.053 154.861C196.608 153.948 195.1 153.149 193.541 152.471C191.076 151.402 188.524 150.564 185.917 149.967C182.942 149.289 179.931 148.798 176.9 148.496C173.869 148.171 170.825 147.973 167.781 147.775C167.652 147.768 167.645 147.57 167.781 147.577C168.162 147.605 168.542 147.626 168.929 147.654C172.007 147.852 175.086 148.079 178.143 148.439C181.175 148.778 184.183 149.321 187.147 150.066C189.677 150.715 192.146 151.598 194.526 152.704C195.894 153.344 197.22 154.079 198.494 154.903C199.303 155.434 200.084 156 200.832 156.601C201.144 156.855 201.457 157.11 201.756 157.386Z" fill="white"/>
<path d="M200.478 157.223C200.355 157.203 200.23 157.188 200.105 157.181C199.962 157.061 199.812 156.947 199.663 156.834C198.617 156.055 197.525 155.344 196.395 154.706C195.368 154.125 194.313 153.598 193.235 153.128C190.771 152.057 188.219 151.219 185.611 150.625C182.636 149.947 179.625 149.455 176.594 149.154C173.564 148.829 170.519 148.631 167.475 148.433C167.346 148.418 167.346 148.227 167.475 148.235C167.863 148.263 168.243 148.284 168.624 148.312C171.702 148.51 174.78 148.737 177.838 149.097C180.869 149.436 183.877 149.979 186.841 150.724C189.371 151.372 191.841 152.255 194.22 153.362C195.117 153.786 195.994 154.246 196.85 154.748C198.119 155.474 199.333 156.301 200.478 157.223V157.223Z" fill="white"/>
<path d="M210.766 158.928C210.657 158.906 210.548 158.878 210.44 158.857C210.317 158.722 210.202 158.581 210.086 158.439C209.502 157.739 208.924 157.032 208.354 156.318C206.105 153.531 203.971 150.66 201.96 147.732C200.234 145.229 198.596 142.676 197.047 140.073C196.306 138.843 195.593 137.598 194.893 136.339C194.349 135.363 193.819 134.385 193.303 133.404C193.153 133.121 193.011 132.838 192.868 132.555C192.535 131.891 192.202 131.219 191.849 130.561C191.465 129.755 190.901 129.057 190.204 128.524C189.856 128.282 189.453 128.138 189.036 128.107C188.446 128.109 187.867 128.265 187.35 128.56C183.549 130.402 179.963 132.692 176.662 135.384C173.438 137.994 170.523 140.992 167.978 144.316C167.897 144.415 167.72 144.323 167.795 144.217C168.1 143.821 168.413 143.425 168.725 143.036C171.172 140.025 173.926 137.3 176.941 134.91C176.947 134.903 176.961 134.896 176.968 134.889C177.233 134.67 177.498 134.458 177.77 134.253C179.452 132.963 181.204 131.773 183.015 130.688C183.939 130.13 184.884 129.599 185.849 129.097C186.087 128.97 186.331 128.842 186.576 128.722C186.82 128.595 187.065 128.475 187.31 128.354C187.794 128.097 188.323 127.946 188.866 127.909C190.755 127.881 191.726 129.861 192.399 131.197C192.61 131.615 192.827 132.032 193.038 132.449C193.853 134.026 194.703 135.596 195.586 137.145C196.123 138.107 196.68 139.062 197.244 140.009C198.053 141.36 198.881 142.697 199.744 144.027C199.744 144.027 199.745 144.028 199.745 144.029C199.745 144.03 199.746 144.031 199.746 144.032C199.747 144.032 199.748 144.033 199.749 144.033C199.749 144.033 199.75 144.034 199.751 144.034C200.75 145.604 201.79 147.145 202.863 148.68C204.705 151.304 206.635 153.869 208.653 156.374C209.346 157.237 210.05 158.088 210.766 158.928Z" fill="white"/>
<path d="M220.251 155.809V156.134C219.579 155.314 218.892 154.5 218.213 153.687C217.928 153.348 217.642 153.008 217.357 152.669C216.147 151.24 214.931 149.816 213.708 148.397C212.478 146.983 211.248 145.568 210.005 144.161C209.706 143.821 209.407 143.482 209.101 143.142C208.856 142.857 208.59 142.592 208.306 142.35C208.019 142.102 207.689 141.912 207.334 141.792C206.926 141.674 206.495 141.669 206.084 141.778C205.615 141.891 205.167 142.067 204.712 142.216C204.243 142.379 203.781 142.534 203.312 142.69C202.374 143.008 201.443 143.326 200.505 143.645C200.494 143.649 200.481 143.652 200.469 143.652C200.456 143.651 200.444 143.649 200.433 143.643C200.421 143.638 200.411 143.63 200.402 143.621C200.394 143.611 200.387 143.6 200.383 143.588C200.378 143.575 200.375 143.56 200.376 143.546C200.377 143.531 200.38 143.517 200.387 143.504C200.393 143.491 200.402 143.48 200.414 143.471C200.425 143.463 200.437 143.457 200.451 143.454C200.682 143.376 200.92 143.298 201.158 143.22C202.102 142.895 203.04 142.577 203.984 142.258C204.453 142.096 204.922 141.94 205.391 141.785C205.826 141.613 206.285 141.517 206.75 141.502C207.509 141.559 208.221 141.906 208.748 142.478C209.04 142.761 209.305 143.058 209.57 143.362C209.882 143.715 210.195 144.069 210.508 144.423C211.765 145.851 213.013 147.284 214.251 148.722C215.495 150.165 216.727 151.61 217.948 153.058C218.036 153.164 218.125 153.27 218.213 153.376C218.899 154.182 219.572 154.995 220.251 155.809Z" fill="white"/>
<path d="M186.524 127.693L186.336 127.779C185.905 127.022 185.302 126.388 184.579 125.933C183.856 125.477 183.036 125.215 182.193 125.168C179.411 124.963 176.967 126.892 176.745 129.469C176.655 130.53 176.95 131.588 177.572 132.434L177.398 132.541C176.749 131.661 176.442 130.559 176.536 129.454C176.767 126.77 179.312 124.761 182.209 124.975C183.088 125.023 183.941 125.296 184.694 125.771C185.447 126.245 186.075 126.905 186.524 127.693V127.693Z" fill="#FF6582"/>
<path d="M172.777 132.907C172.047 132.577 171.252 132.432 170.458 132.485C169.663 132.537 168.892 132.786 168.208 133.21C170.705 133.609 173.18 134.144 175.623 134.813C174.611 134.264 173.82 133.404 172.777 132.907Z" fill="white"/>
<path d="M168.194 133.208L167.919 133.415C168.012 133.343 168.109 133.275 168.208 133.21L168.194 133.208Z" fill="white"/>
<path d="M208.201 143.654C207.944 143.309 207.602 143.045 207.211 142.888L206.825 142.902C209.857 147.814 213.831 152.022 218.496 155.264C215.064 151.394 211.632 147.524 208.201 143.654Z" fill="white"/>
<path d="M176.474 134.409C176.364 134.295 176.255 134.182 176.145 134.069C175.299 133.111 174.281 132.335 173.147 131.786C172.57 131.533 171.951 131.4 171.325 131.395C170.678 131.411 170.039 131.54 169.433 131.777C169.149 131.882 168.87 132.002 168.596 132.129C168.282 132.276 167.974 132.432 167.668 132.589C167.093 132.884 166.525 133.191 165.965 133.512C164.85 134.151 163.77 134.838 162.725 135.573C162.183 135.955 161.652 136.349 161.133 136.756C160.65 137.133 160.177 137.521 159.713 137.919C159.614 138.004 159.466 137.867 159.565 137.782C159.687 137.677 159.811 137.572 159.934 137.468C160.283 137.176 160.638 136.889 160.998 136.608C161.655 136.095 162.329 135.601 163.02 135.127C164.094 134.39 165.206 133.703 166.354 133.065C166.928 132.747 167.51 132.442 168.099 132.151C168.277 132.063 168.458 131.977 168.64 131.895C169.056 131.701 169.485 131.539 169.924 131.411C170.554 131.223 171.213 131.163 171.864 131.234C172.488 131.317 173.094 131.511 173.654 131.808C174.765 132.456 175.767 133.288 176.622 134.271C176.711 134.364 176.564 134.502 176.474 134.409Z" fill="white"/>
<path d="M74.9414 107.986C90.2577 102.9 107.345 104.247 121.855 111.412C125.995 113.446 129.905 115.952 133.513 118.885C134.534 119.719 135.986 118.228 134.955 117.385C121.628 106.626 104.882 101.515 88.0829 103.079C83.4353 103.512 78.847 104.471 74.3994 105.94C73.1544 106.354 73.6865 108.403 74.9413 107.986H74.9414Z" fill="#3F3D56"/>
<path d="M74.9414 122.131C90.2577 117.045 107.345 118.391 121.855 125.556C125.995 127.59 129.905 130.097 133.513 133.03C134.534 133.863 135.986 132.372 134.955 131.529C121.628 120.771 104.882 115.66 88.0829 117.223C83.4353 117.656 78.847 118.616 74.3994 120.085C73.1544 120.498 73.6865 122.547 74.9413 122.131H74.9414Z" fill="#3F3D56"/>
<path d="M74.9414 136.275C90.2577 131.189 107.345 132.536 121.855 139.701C125.995 141.735 129.905 144.241 133.513 147.174C134.534 148.008 135.986 146.517 134.955 145.674C121.628 134.915 104.882 129.804 88.0829 131.368C83.4353 131.801 78.847 132.76 74.3994 134.229C73.1544 134.643 73.6865 136.692 74.9413 136.275H74.9414Z" fill="#3F3D56"/>
<path d="M74.9414 150.419C90.2577 145.333 107.345 146.68 121.855 153.845C125.995 155.879 129.905 158.385 133.513 161.318C134.534 162.152 135.986 160.661 134.955 159.818C121.628 149.059 104.882 143.948 88.0829 145.512C83.4353 145.945 78.847 146.905 74.3994 148.374C73.1544 148.787 73.6865 150.836 74.9413 150.419H74.9414Z" fill="#3F3D56"/>
<path d="M74.9414 164.564C90.2577 159.478 107.345 160.824 121.855 167.989C125.995 170.023 129.905 172.53 133.513 175.463C134.534 176.296 135.986 174.805 134.955 173.962C121.628 163.204 104.882 158.093 88.0829 159.657C83.4353 160.089 78.847 161.049 74.3994 162.518C73.1544 162.931 73.6865 164.98 74.9413 164.564L74.9414 164.564Z" fill="#3F3D56"/>
<path d="M130.124 71.0846V110.728C130.124 111.403 128.993 111.967 127.466 112.119C127.2 112.147 126.921 112.161 126.631 112.161C125.791 112.178 124.955 112.036 124.163 111.742C124.016 111.683 123.874 111.612 123.737 111.531C123.358 111.299 123.138 111.025 123.138 110.728V68.0273C124.382 68.4601 125.543 68.9137 126.631 69.3846C127.895 69.9316 129.056 70.4994 130.124 71.0846Z" fill="#9082EF"/>
<path d="M144.765 84.6775H143.767V212.913H144.765V84.6775Z" fill="#E6E6E6"/>
<path d="M233.83 188.017C232.801 189.132 231.558 190.008 230.181 190.589C228.805 191.169 227.327 191.442 225.842 191.387C221.227 191.218 215.72 191.133 209.743 191.263L209.709 191.233L235.614 156.281L236.732 179.584C236.844 181.123 236.644 182.669 236.144 184.122C235.643 185.575 234.855 186.902 233.83 188.017V188.017Z" fill="#F2F2F2"/>
<path d="M169.34 310.171L167.958 321.845L166.903 330.718L166.481 334.298H160.475V331.117L160.47 320.592V310.171H169.34Z" fill="#FFB6B6"/>
<path d="M127.46 308.948L125.757 314.421L124.389 318.809L124.154 319.563L123.219 322.564L121.242 328.91L120.259 332.071L114.795 330.972L114.358 330.888L114.713 328.98L114.929 327.817L117.318 314.925L117.707 312.848L117.769 312.513L117.947 311.55L118.753 307.201L124.576 308.369L125.248 308.504L127.46 308.948Z" fill="#FFB6B6"/>
<path d="M178.364 240.654C174.929 260.301 174.07 268.784 174.07 268.784C174.07 268.784 176.646 271.91 174.929 273.697C173.211 275.485 174.929 279.055 174.929 279.055L171.067 322.369L167.958 321.845L160.47 320.592L157.769 320.138L159.486 279.504C159.486 279.504 157.769 275.929 158.627 275.036C159.486 274.142 157.769 268.784 157.769 268.784L155.624 226.364L142.321 272.804C142.321 272.804 143.612 274.591 142.321 275.929C141.036 277.267 138.464 283.968 138.464 283.968L130.554 312.778L129.882 315.224L125.756 314.421L121.266 313.542L120.441 313.382L118.973 313.092L118.028 312.908L117.707 312.848L116.152 312.543L116.622 310.371L116.867 309.228L123.559 278.291L123.713 277.577L123.876 276.823C123.876 276.823 123.017 274.591 124.303 273.248C124.679 272.839 124.954 272.34 125.103 271.796C125.253 271.251 125.273 270.677 125.162 270.122C125.12 270.076 125.081 270.026 125.046 269.973C124.895 269.756 124.79 269.507 124.739 269.244C124.624 268.685 124.725 267.901 125.593 266.997C125.838 266.726 126.043 266.42 126.203 266.088C127.507 263.517 128.165 258.069 128.165 258.069C128.165 258.069 129.326 214.925 133.125 208.334C133.275 208.046 133.487 207.799 133.744 207.61C138.033 204.934 179.217 207.61 179.217 207.61C179.217 207.61 179.275 207.919 179.366 208.509C179.86 211.819 181.275 223.987 178.364 240.654Z" fill="#2F2E41"/>
<path d="M177.014 161.39L178.216 153.85L200.362 157.729L231.782 160.069C232.464 159.284 233.371 158.749 234.369 158.544C235.366 158.339 236.401 158.474 237.318 158.931C238.235 159.387 238.987 160.139 239.46 161.076C239.933 162.013 240.103 163.083 239.945 164.128C239.786 165.174 239.308 166.138 238.58 166.877C237.853 167.616 236.915 168.091 235.907 168.231C234.9 168.371 233.875 168.169 232.987 167.654C232.099 167.139 231.394 166.339 230.978 165.374L211.707 166.723L177.014 161.39Z" fill="#FFB6B6"/>
<path d="M160.46 156.171L162.024 149.44C162.024 149.44 170.515 147.813 177.228 149.37L202.483 154.414L200.439 170.304L160.46 156.171Z" fill="#9082EF"/>
<path d="M101.84 211.596L115.97 179.649L126.281 157.046L135.224 162.524L107.385 215.112C107.629 216.05 107.601 217.041 107.304 217.962C107.007 218.883 106.454 219.692 105.715 220.286C104.977 220.88 104.085 221.232 103.154 221.299C102.223 221.365 101.294 221.143 100.484 220.66C99.6742 220.177 99.0201 219.455 98.6046 218.585C98.1891 217.715 98.0307 216.737 98.1496 215.773C98.2684 214.81 98.6591 213.904 99.2723 213.172C99.8854 212.439 100.693 211.913 101.594 211.658C101.676 211.635 101.758 211.614 101.84 211.596L101.84 211.596Z" fill="#FFB6B6"/>
<path d="M142.59 147.361L135.731 144.086C135.731 144.086 134.515 143.647 131.893 147.426C129.27 151.206 106.712 186.867 106.712 186.867L121.037 193.606L142.59 147.361Z" fill="#9082EF"/>
<path d="M177.102 341.248L168.174 334.827V330.638L166.903 330.718L160.475 331.117L158.781 331.222L157.611 345.812L157.596 346.016H161.813L161.851 345.812L162.566 341.872L164.394 345.812L164.49 346.016H175.677C176.013 346.016 176.346 345.946 176.656 345.812C177.071 345.629 177.431 345.334 177.699 344.957C177.967 344.579 178.132 344.134 178.178 343.668C178.224 343.201 178.148 342.73 177.958 342.304C177.769 341.879 177.473 341.514 177.102 341.248H177.102Z" fill="#2F2E41"/>
<path d="M129.484 341.633L125.593 337.219L122.878 334.133L122.432 333.624L122.365 333.549L122.149 333.304L123.046 329.22L121.242 328.91L114.929 327.817L114.588 327.762L113.917 327.642L113.763 327.617L111.609 334.682L109.657 341.068L109.446 341.767L112.041 342.382L113.557 342.741L114.305 340.954L114.387 340.764L114.876 339.59V339.585L115.178 338.876L116.171 343.36L116.344 343.4L116.368 343.405L116.977 343.55L118.167 343.835L126.486 345.812L127.076 345.952C127.726 346.102 128.406 345.979 128.97 345.61C129.533 345.241 129.934 344.655 130.084 343.979C130.174 343.567 130.167 343.138 130.062 342.729C129.958 342.32 129.759 341.944 129.484 341.633V341.633Z" fill="#2F2E41"/>
<path d="M167.987 126.762C167.017 128.615 165.67 130.226 164.04 131.482C162.41 132.737 160.537 133.608 158.551 134.032C158.33 134.082 158.109 134.122 157.884 134.157C154.767 134.664 151.577 134.059 148.834 132.439C146.09 130.819 143.953 128.281 142.771 125.237C141.59 122.193 141.432 118.822 142.325 115.673C143.218 112.524 145.108 109.783 147.689 107.894C150.269 106.006 153.387 105.081 156.537 105.272C159.686 105.462 162.68 106.756 165.033 108.943C167.386 111.13 168.958 114.082 169.494 117.317C170.031 120.552 169.499 123.881 167.987 126.762V126.762Z" fill="#FFB6B6"/>
<path d="M162.432 107.025C157.86 103.752 153.834 103.254 150.527 104.182C150.098 103.492 149.497 102.936 148.788 102.575C146.209 95.8108 138.359 91.7486 131.623 93.7233C124.844 95.7108 120.166 103.527 121.441 110.737C122.232 115.206 124.934 119.075 126.021 123.476C128.125 131.996 122.993 141.755 114.964 144.501C122.566 146.09 130.934 141.257 133.661 133.702C134.986 130.033 135.066 126.026 135.234 122.111C135.278 119.408 135.596 116.717 136.183 114.084C136.474 112.902 136.886 111.756 137.411 110.666C138.553 108.269 140.452 106.352 142.788 105.235C142.579 105.909 142.527 106.625 142.636 107.323C142.745 108.022 143.012 108.684 143.415 109.254C141.632 111.579 140.662 114.093 140.662 115.598C136.958 122.643 142.254 128.695 149.023 132.549C151.723 134.095 154.841 134.66 157.884 134.157L158.167 132.899L158.551 134.032L159.832 137.832C161.309 138.576 162.774 139.391 164.226 140.279C163.674 137.582 163.228 134.891 162.921 132.26C162.496 128.678 163.978 123.347 165.047 120.104C165.71 118.106 166.05 116.007 166.054 113.893V113.801L167.095 117.281L170.884 115.598C170.179 111.389 170.884 106.611 162.432 107.025Z" fill="#2F2E41"/>
<path d="M133.313 203.592C133.812 201.54 133.812 199.392 133.313 197.34C132.455 194.215 134.172 192.875 134.172 192.875L134.601 144.65C136.413 142.764 141.269 142.733 143.986 142.88V140.756C143.986 139.974 144.285 139.224 144.816 138.671C145.347 138.118 146.068 137.807 146.819 137.807H159.383C160.134 137.807 160.855 138.118 161.386 138.671C161.917 139.224 162.216 139.974 162.216 140.756V143.302L165.901 143.362C172.318 143.859 177.932 150.455 177.932 150.455L172.355 172.781C172.355 172.781 174.071 191.089 176.216 193.322C178.361 195.554 177.503 196.894 177.503 196.894C177.503 196.894 176.216 201.806 178.79 203.592C181.364 205.378 179.648 208.504 179.648 208.504C179.648 208.504 133.314 209.397 132.026 208.057C130.739 206.718 133.313 203.592 133.313 203.592Z" fill="#9082EF"/>
<path d="M218.685 346.406C218.685 346.484 218.67 346.561 218.642 346.633C218.613 346.706 218.571 346.771 218.518 346.826C218.465 346.882 218.402 346.925 218.333 346.955C218.263 346.985 218.189 347 218.114 347H83.6507C83.4993 347 83.3541 346.937 83.247 346.826C83.14 346.714 83.0798 346.563 83.0798 346.406C83.0798 346.248 83.14 346.097 83.247 345.986C83.3541 345.874 83.4993 345.812 83.6507 345.812H218.114C218.189 345.811 218.263 345.827 218.333 345.856C218.402 345.886 218.465 345.93 218.518 345.985C218.571 346.04 218.613 346.106 218.642 346.178C218.67 346.25 218.685 346.328 218.685 346.406V346.406Z" fill="#CCCCCC"/>
</g>
<defs>
<clipPath id="clip0_183_674">
<rect width="282.148" height="347" fill="white"/>
</clipPath>
</defs>
</svg>
