<svg width="428" height="347" viewBox="0 0 428 347" fill="none" xmlns="http://www.w3.org/2000/svg">
<g clip-path="url(#clip0_226_2260)">
<path d="M343.473 63.2069C341.219 87.6946 334.796 113.515 324.723 138.429C312.266 169.238 295.247 196.375 275.505 216.905L274.409 215.963C294.056 195.532 310.997 168.515 323.402 137.833C334.613 110.107 341.281 81.2534 342.694 54.4048L344.094 54.6358C343.946 57.4714 343.739 60.3284 343.473 63.2069Z" fill="#F2F2F2"/>
<path d="M352.452 205.427C324.724 248.915 291.083 279.987 257.726 292.919L257.051 291.7C290.177 278.857 323.621 247.943 351.223 204.654L352.452 205.427Z" fill="#F2F2F2"/>
<path d="M342.8 93.695C340.546 118.183 334.123 144.003 324.05 168.917C311.593 199.726 294.574 226.863 274.832 247.393L273.736 246.451C293.383 226.02 310.324 199.003 322.729 168.321C333.94 140.595 340.608 111.741 342.021 84.8928L343.421 85.1239C343.273 87.9594 343.066 90.8165 342.8 93.695Z" fill="#F2F2F2"/>
<path d="M31.5096 156.562H13.3162C12.9275 156.563 12.5436 156.477 12.1934 156.311C11.8432 156.145 11.5358 155.902 11.2941 155.602C11.0554 155.31 10.887 154.968 10.8015 154.602C10.716 154.236 10.7157 153.856 10.8006 153.49C12.5333 145.953 12.4245 138.118 10.483 130.63C10.3602 130.137 10.3899 129.619 10.5682 129.143C10.7466 128.667 11.0655 128.254 11.4838 127.958C20.8389 121.326 28.2063 121.518 33.3816 128.531C33.6149 128.851 33.7699 129.22 33.8344 129.608C35.2172 137.803 35.2937 146.161 34.0612 154.379C33.9755 154.986 33.6698 155.541 33.2007 155.942C32.7316 156.344 32.1308 156.564 31.5096 156.562Z" fill="#E6E6E6"/>
<path d="M25.8691 138.602H19.6106C19.2645 138.602 18.9326 138.466 18.6878 138.225C18.4431 137.984 18.3057 137.657 18.3057 137.315C18.3057 136.974 18.4431 136.647 18.6878 136.406C18.9326 136.165 19.2645 136.029 19.6106 136.029H25.8691C26.2148 136.03 26.546 136.166 26.7901 136.407C27.0342 136.648 27.1713 136.975 27.1713 137.315C27.1713 137.656 27.0342 137.983 26.7901 138.224C26.546 138.465 26.2148 138.601 25.8691 138.602Z" fill="white"/>
<path d="M25.8691 143.113H19.6106C19.2645 143.113 18.9326 142.978 18.6878 142.737C18.4431 142.495 18.3057 142.168 18.3057 141.827C18.3057 141.486 18.4431 141.159 18.6878 140.917C18.9326 140.676 19.2645 140.541 19.6106 140.541H25.8691C26.2148 140.541 26.546 140.677 26.7901 140.918C27.0342 141.159 27.1713 141.486 27.1713 141.827C27.1713 142.168 27.0342 142.494 26.7901 142.736C26.546 142.977 26.2148 143.113 25.8691 143.113Z" fill="white"/>
<path d="M25.8691 147.624H19.6106C19.2645 147.624 18.9326 147.489 18.6878 147.248C18.4431 147.006 18.3057 146.679 18.3057 146.338C18.3057 145.997 18.4431 145.67 18.6878 145.429C18.9326 145.187 19.2645 145.052 19.6106 145.052H25.8691C26.2148 145.052 26.546 145.188 26.7901 145.429C27.0342 145.671 27.1713 145.997 27.1713 146.338C27.1713 146.679 27.0342 147.006 26.7901 147.247C26.546 147.488 26.2148 147.624 25.8691 147.624Z" fill="white"/>
<path d="M362.157 236.64H343.963C343.575 236.641 343.191 236.555 342.841 236.388C342.49 236.222 342.183 235.98 341.941 235.68C341.703 235.387 341.534 235.045 341.449 234.679C341.363 234.314 341.363 233.933 341.448 233.568C343.18 226.031 343.072 218.195 341.13 210.708C341.007 210.215 341.037 209.697 341.215 209.221C341.394 208.745 341.713 208.332 342.131 208.036C351.486 201.403 358.853 201.596 364.029 208.609C364.262 208.929 364.417 209.297 364.482 209.686C365.864 217.881 365.941 226.238 364.708 234.457C364.623 235.063 364.317 235.619 363.848 236.02C363.379 236.421 362.778 236.642 362.157 236.64Z" fill="#E6E6E6"/>
<path d="M356.516 218.68H350.258C349.912 218.679 349.581 218.543 349.337 218.302C349.093 218.061 348.955 217.734 348.955 217.393C348.955 217.053 349.093 216.726 349.337 216.485C349.581 216.243 349.912 216.108 350.258 216.107H356.516C356.862 216.107 357.194 216.242 357.439 216.484C357.684 216.725 357.821 217.052 357.821 217.393C357.821 217.734 357.684 218.062 357.439 218.303C357.194 218.544 356.862 218.68 356.516 218.68Z" fill="white"/>
<path d="M356.516 223.191H350.258C349.912 223.19 349.581 223.054 349.337 222.813C349.093 222.572 348.955 222.245 348.955 221.905C348.955 221.564 349.093 221.237 349.337 220.996C349.581 220.755 349.912 220.619 350.258 220.618H356.516C356.862 220.618 357.194 220.754 357.439 220.995C357.684 221.236 357.821 221.563 357.821 221.905C357.821 222.246 357.684 222.573 357.439 222.814C357.194 223.055 356.862 223.191 356.516 223.191Z" fill="white"/>
<path d="M356.516 227.702H350.258C349.912 227.702 349.581 227.566 349.337 227.325C349.093 227.084 348.955 226.757 348.955 226.416C348.955 226.075 349.093 225.749 349.337 225.507C349.581 225.266 349.912 225.13 350.258 225.13H356.516C356.862 225.13 357.194 225.265 357.439 225.506C357.684 225.748 357.821 226.075 357.821 226.416C357.821 226.757 357.684 227.084 357.439 227.326C357.194 227.567 356.862 227.702 356.516 227.702Z" fill="white"/>
<path d="M431 346.329C431 346.417 430.983 346.505 430.949 346.586C430.915 346.668 430.864 346.742 430.801 346.804C430.738 346.867 430.663 346.916 430.58 346.95C430.497 346.983 430.409 347 430.319 347H-2.31925C-2.4998 347 -2.67294 346.929 -2.80061 346.804C-2.92827 346.678 -3 346.507 -3 346.329C-3 346.151 -2.92827 345.98 -2.80061 345.854C-2.67294 345.729 -2.4998 345.658 -2.31925 345.658H430.319C430.409 345.658 430.497 345.675 430.58 345.708C430.663 345.742 430.738 345.792 430.801 345.854C430.864 345.916 430.915 345.99 430.949 346.072C430.983 346.153 431 346.241 431 346.329Z" fill="#CCCCCC"/>
<path d="M111.127 305.241L109.992 289.683C102.559 286.02 94.3315 284.201 86.0237 284.384C97.7117 293.29 96.7755 311.091 104.87 323.273C107.424 327.053 110.809 330.218 114.772 332.534C118.736 334.85 123.178 336.257 127.768 336.65L137.495 342.167C138.608 334.917 138.113 327.515 136.045 320.472C133.976 313.429 130.384 306.911 125.514 301.369C122.751 298.286 119.605 295.559 116.151 293.251C114.025 299.268 111.127 305.241 111.127 305.241Z" fill="#F2F2F2"/>
<path d="M316.873 307.497L318.008 291.939C325.441 288.276 333.668 286.457 341.976 286.64C330.288 295.546 331.225 313.346 323.13 325.528C320.576 329.309 317.191 332.474 313.228 334.79C309.264 337.105 304.822 338.512 300.232 338.906L290.505 344.422C289.392 337.172 289.887 329.771 291.955 322.728C294.024 315.684 297.616 309.167 302.486 303.624C305.249 300.542 308.395 297.814 311.849 295.506C313.975 301.524 316.873 307.497 316.873 307.497Z" fill="#F2F2F2"/>
<path d="M208.852 131.927C214.854 131.927 219.721 127.13 219.721 121.212C219.721 115.295 214.854 110.498 208.852 110.498C202.849 110.498 197.983 115.295 197.983 121.212C197.983 127.13 202.849 131.927 208.852 131.927Z" fill="#8A85E9"/>
<path d="M214.431 116.747C214.268 116.593 214.05 116.507 213.824 116.507C213.598 116.507 213.381 116.593 213.218 116.747C210.911 118.56 208.84 120.646 207.05 122.957C206.61 122.119 206.171 121.281 205.731 120.442C205.224 119.475 203.743 120.33 204.25 121.296C204.892 122.522 205.535 123.748 206.178 124.974C206.255 125.1 206.364 125.203 206.494 125.275C206.624 125.346 206.77 125.384 206.919 125.384C207.068 125.384 207.214 125.346 207.344 125.275C207.473 125.203 207.582 125.1 207.66 124.974C209.567 122.326 211.847 119.958 214.431 117.943C214.591 117.784 214.68 117.569 214.68 117.345C214.68 117.121 214.591 116.906 214.431 116.747Z" fill="white"/>
<path d="M160.218 151.595L143.828 126.221L162.807 116.2L167.789 135.56L202.887 154.257C204.273 153.765 205.774 153.682 207.207 154.016C208.64 154.351 209.943 155.09 210.958 156.142C211.973 157.194 212.655 158.515 212.921 159.943C213.188 161.371 213.027 162.844 212.458 164.183C211.89 165.523 210.939 166.67 209.72 167.485C208.502 168.301 207.069 168.749 205.597 168.776C204.124 168.803 202.676 168.407 201.428 167.636C200.18 166.865 199.186 165.753 198.568 164.435L160.218 151.595Z" fill="#A0616A"/>
<path d="M131.853 95.7865C126.703 103.24 145.005 130.334 145.005 130.334C145.896 128.44 154.419 149.714 155.846 148.458C159.903 144.886 166.254 134.937 169.785 134.493C171.803 134.239 165.102 120.125 165.102 120.125C165.102 120.125 162.04 111.791 157.884 101.144C156.766 98.1125 154.888 95.4093 152.425 93.2859C149.962 91.1625 146.993 89.6879 143.797 88.9995C143.797 88.9995 137.003 88.3327 131.853 95.7865Z" fill="#3F3D56"/>
<path d="M132.105 338.634L139.889 338.633L143.592 309.036L132.103 309.036L132.105 338.634Z" fill="#A0616A"/>
<path d="M130.119 336.129L132.31 336.128L140.864 332.699L145.448 336.128H145.449C148.04 336.128 150.525 337.143 152.357 338.949C154.189 340.755 155.218 343.204 155.218 345.758V346.071L130.119 346.072L130.119 336.129Z" fill="#2F2E41"/>
<path d="M168.268 338.634L176.052 338.633L179.755 309.036L168.267 309.036L168.268 338.634Z" fill="#A0616A"/>
<path d="M166.282 336.129L168.473 336.128L177.027 332.699L181.612 336.128H181.612C184.203 336.128 186.688 337.143 188.52 338.949C190.352 340.755 191.382 343.204 191.382 345.758V346.071L166.283 346.072L166.282 336.129Z" fill="#2F2E41"/>
<path d="M171.637 176.821L121.006 178.069C111.39 183.217 111.244 194.361 114.395 207.592C114.395 207.592 113.331 215.455 115.459 217.552C117.586 219.649 118.65 219.65 117.586 223.319C116.522 226.989 122.142 232.983 121.459 233.656C120.777 234.329 119.181 237.999 119.181 237.999L124.499 267.881C124.499 267.881 128.222 319.783 129.286 320.832C130.349 321.88 131.413 320.832 130.349 323.453C129.286 326.074 128.222 325.026 129.286 326.074C130.228 327.076 131.116 328.126 131.945 329.22H144.803C144.803 329.22 145.772 323.977 145.772 323.453C145.772 322.929 146.836 319.783 146.836 319.259C146.836 318.734 145.896 317.808 145.896 317.808C145.571 316.742 145.351 315.648 145.24 314.54C145.24 313.492 142.049 273.124 142.049 273.124L148.431 220.698L163.854 272.075C163.854 272.075 163.854 317.162 164.917 318.21C165.981 319.259 165.981 318.735 165.449 320.832C164.917 322.929 162.79 322.404 164.385 323.977C165.981 325.55 166.513 322.929 165.981 325.55L165.449 328.171L181.403 328.396C181.403 328.396 183.531 323.977 182.467 322.404C181.403 320.832 181.467 321.261 182.765 318.687C184.063 316.113 184.594 315.589 184.063 315.065C183.531 314.54 183.531 311.752 183.531 311.752L180.872 261.59C180.872 261.59 180.34 208.64 180.34 207.067C180.3 206.258 180.451 205.451 180.782 204.709V202.574L178.744 195.009L171.637 176.821Z" fill="#2F2E41"/>
<path d="M141.222 73.0372C149.911 73.0372 156.954 66.0941 156.954 57.5294C156.954 48.9646 149.911 42.0215 141.222 42.0215C132.534 42.0215 125.491 48.9646 125.491 57.5294C125.491 66.0941 132.534 73.0372 141.222 73.0372Z" fill="#A0616A"/>
<path d="M149.088 83.2868C152.477 85.273 154.505 88.9224 155.668 92.636C157.823 99.5112 159.12 106.62 159.53 113.804L160.76 135.313L175.984 181.112C162.79 192.117 113.195 183.613 113.195 183.613C113.195 183.613 111.673 183.113 113.195 181.612C114.718 180.111 116.2 181.441 114.677 179.94C113.155 178.439 114.204 180.111 114.712 178.611C115.219 177.11 114.712 178.11 114.204 177.61C113.697 177.11 118.133 172.608 118.133 172.608L114.073 146.319L108.999 93.2918C115.088 85.788 127.335 81.3646 127.335 81.3646L130.499 75.7495L146.322 76.9973L149.088 83.2868Z" fill="#3F3D56"/>
<path d="M154.19 49.2902C155.413 50.1891 156.319 51.4435 156.78 52.8767C156.958 50.5346 156.969 48.1832 156.814 45.8395C156.629 44.1927 155.452 43.8222 154.091 43.393C152.861 43.0052 151.47 42.5671 151.096 40.9684C146.15 36.2261 137.542 36.4652 131.651 38.1194C128.409 39.0297 126.544 40.1992 126.377 40.8843L126.343 41.0254L126.211 41.0903C123.712 42.3219 123.226 46.2112 123.258 49.257C123.319 54.9954 125.329 61.5128 126.461 62.0423C126.521 62.0703 126.536 62.0593 126.562 62.038C128.267 60.6949 130.347 62.1401 131.261 62.9257C131.8 59.3592 133.536 56.0736 136.192 53.5938C138.847 51.1139 142.269 49.5829 145.911 49.2451C147.1 49.1318 148.28 48.9368 149.442 48.6614C150.031 48.5111 150.637 48.4328 151.246 48.4281C152.293 48.4124 153.321 48.7132 154.19 49.2902Z" fill="#2F2E41"/>
<path d="M251.848 189.178L282.11 158.885L290.083 134.656L277.252 129.541C270.897 135.86 264.354 155.208 264.354 155.208L243.7 182.535C243.535 182.595 243.371 182.659 243.208 182.735C242.258 183.177 241.438 183.854 240.831 184.7C240.223 185.546 239.846 186.532 239.738 187.563C239.629 188.594 239.793 189.635 240.212 190.586C240.631 191.537 241.292 192.365 242.13 192.991C242.969 193.616 243.957 194.018 244.999 194.156C246.041 194.295 247.102 194.167 248.079 193.784C249.056 193.4 249.917 192.775 250.577 191.968C251.237 191.161 251.675 190.2 251.848 189.178Z" fill="#FFB8B8"/>
<path d="M273.753 132.312L289.978 136.939L290.038 136.927C296.002 135.786 300.72 126.015 303.627 118.02C304.584 115.383 304.489 112.486 303.362 109.915C302.234 107.344 300.159 105.291 297.555 104.171C295.629 103.358 293.51 103.091 291.438 103.403C289.366 103.714 287.424 104.591 285.831 105.933L277.741 112.801L273.753 132.312Z" fill="#8A85E9"/>
<path d="M259.871 337.734L251.145 337.733L246.994 304.555L259.872 304.555L259.871 337.734Z" fill="#FFB8B8"/>
<path d="M262.097 334.925L259.641 334.925L250.052 331.081L244.912 334.925H244.911C242.007 334.925 239.222 336.062 237.168 338.087C235.114 340.111 233.96 342.857 233.96 345.72V346.071L262.096 346.072L262.097 334.925Z" fill="#2F2E41"/>
<path d="M298.589 337.734L289.863 337.733L285.712 304.555L298.591 304.555L298.589 337.734Z" fill="#FFB8B8"/>
<path d="M300.815 334.925L298.359 334.925L288.77 331.081L283.63 334.925H283.63C280.725 334.925 277.94 336.062 275.886 338.087C273.833 340.111 272.679 342.857 272.678 345.72V346.071L300.814 346.072L300.815 334.925Z" fill="#2F2E41"/>
<path d="M311.894 194.82C311.894 194.82 312.913 206.873 310.366 218.424C307.819 229.975 307.819 262.507 307.819 262.507L302.215 325.899L285.403 324.392L280.818 218.424L264.515 254.082L266.044 259.104L264.008 260.359C264.008 260.359 265.534 270.153 264.515 270.153C263.496 270.153 260.949 271.659 260.949 271.659L262.987 323.388L245.666 322.885L239.552 250.064L246.175 208.38L246.684 200.345L248.977 200.437L250.144 197.08L252.288 191.305L311.894 194.82Z" fill="#2F2E41"/>
<path d="M312.775 197.352L312.866 197.226C317.715 190.534 310.422 174.452 309.322 172.12L313.955 170.638L312.912 161.896L312.417 157.998L315.958 154.507L315.968 154.42L318.006 136.843L320.969 125.168C322.085 120.754 321.99 116.127 320.693 111.762C319.396 107.397 316.944 103.45 313.589 100.328L306.74 93.9622L298.417 81.8215H284.995L280.392 90.3911C275.93 91.4077 271.972 93.9352 269.206 97.5332C266.44 101.131 265.042 105.572 265.256 110.081L266.299 132.557L262.215 160.541L262.213 165.605L257.618 170.64L258.621 175.585L255.124 177.063L253.58 184.167C252.94 184.998 248.722 190.542 248.722 192.058C248.722 192.286 248.893 192.506 249.258 192.75C252.133 194.668 268.022 198.581 275.054 195.807C282.544 192.854 312.32 197.283 312.62 197.328L312.775 197.352Z" fill="#8A85E9"/>
<path d="M289.972 77.9023C299.789 77.9023 307.748 70.0566 307.748 60.3785C307.748 50.7004 299.789 42.8547 289.972 42.8547C280.154 42.8547 272.196 50.7004 272.196 60.3785C272.196 70.0566 280.154 77.9023 289.972 77.9023Z" fill="#FFB8B8"/>
<path d="M288.269 78.186C291.022 78.1582 293.767 77.8987 296.476 77.4103C299.157 76.8014 305.072 72.2923 306.684 69.6284C307.882 67.6492 308.601 64.5879 308.993 62.3684C309.523 59.431 309.421 56.4167 308.694 53.5207C307.967 50.6247 306.63 47.9115 304.772 45.5569C304.056 44.5704 303.082 43.7932 301.954 43.3074C301.855 43.2719 301.752 43.2407 301.649 43.2145C300.014 42.8347 298.532 41.9819 297.392 40.7657C297.171 40.5195 296.932 40.2892 296.677 40.0769C295.399 39.068 293.897 38.3716 292.293 38.0447C289.703 37.4314 285.997 38.1999 281.279 40.3309C278.909 41.4016 276.279 41.1029 274.251 40.723C274.137 40.7044 274.021 40.7154 273.913 40.755C273.805 40.7945 273.709 40.8613 273.635 40.9486C272.798 41.7644 271.679 42.2376 270.503 42.2731C269.783 42.3226 269.052 43.3256 268.172 44.6316C267.972 44.9281 267.739 45.2741 267.57 45.4853L267.536 45.0887L267.14 45.5421C266.518 46.2547 266.088 47.1111 265.892 48.0314C265.695 48.9517 265.738 49.906 266.016 50.8055C266.295 51.7051 266.8 52.5205 267.484 53.1759C268.168 53.8314 269.009 54.3055 269.929 54.5541C270.659 54.7258 271.405 54.8235 272.155 54.8459C272.61 54.8746 273.08 54.9042 273.532 54.9697C274.983 55.2244 276.342 55.8456 277.477 56.7727C278.612 57.6998 279.484 58.9011 280.007 60.2594C280.13 60.5733 280.325 60.855 280.577 61.0828C280.828 61.3106 281.13 61.4784 281.457 61.5732C281.785 61.668 282.131 61.6872 282.467 61.6295C282.804 61.5718 283.122 61.4386 283.398 61.2403C283.857 60.8688 284.401 60.6122 284.982 60.4924C285.563 60.3727 286.166 60.3934 286.737 60.5527C287.234 60.8088 287.627 61.2256 287.849 61.7332C288.118 62.2982 288.551 62.7714 289.094 63.0925C290.945 63.9743 291.178 68.0835 290.612 71.5284C290.067 74.849 288.879 77.2713 287.725 77.4189C286.836 77.5324 286.736 77.5974 286.676 77.7544L286.622 77.8949L286.725 78.0224C287.222 78.1857 287.748 78.2415 288.269 78.186Z" fill="#2F2E41"/>
<path d="M273.521 134.186L264.976 123.454C256.273 125.816 240.829 139.386 240.829 139.386L209.114 152.954C208.055 152.779 206.968 152.881 205.963 153.251C204.957 153.622 204.069 154.247 203.386 155.063C202.703 155.88 202.251 156.859 202.074 157.903C201.898 158.947 202.003 160.018 202.38 161.009C202.757 162 203.392 162.875 204.221 163.547C205.05 164.219 206.044 164.664 207.103 164.837C208.162 165.009 209.249 164.904 210.253 164.532C211.258 164.159 212.145 163.532 212.826 162.714L254.372 151.288L273.521 134.186Z" fill="#FFB8B8"/>
<path d="M271.473 136.64L284.955 121.824L285.704 111.326C285.843 109.265 285.395 107.206 284.409 105.382C283.424 103.559 281.941 102.043 280.128 101.007C277.66 99.6188 274.75 99.2059 271.986 99.852C269.221 100.498 266.809 102.155 265.236 104.487C260.472 111.565 255.347 121.134 257.984 126.529L258.011 126.584L271.473 136.64Z" fill="#8A85E9"/>
<path d="M147.209 192.328L112.169 174.637C109.676 173.378 108.851 170.041 110.328 167.196L133.176 123.219C134.653 120.375 137.883 119.085 140.376 120.343L175.416 138.034C177.909 139.293 178.735 142.63 177.257 145.475L154.41 189.452C152.932 192.296 149.702 193.586 147.209 192.328Z" fill="#E6E6E6"/>
<path d="M141.222 184.195L117.415 172.175C115.081 170.997 114.307 167.871 115.691 165.207L134.673 128.672C136.056 126.008 139.082 124.8 141.416 125.978L170.17 140.495C172.504 141.674 173.278 144.8 171.894 147.464L161.582 167.312C155.418 179.177 151.62 189.445 141.222 184.195Z" fill="white"/>
<path d="M152.993 164.243L131.906 153.597C131.649 153.416 131.465 153.149 131.39 152.846C131.315 152.543 131.354 152.223 131.498 151.945C131.642 151.667 131.883 151.45 132.176 151.333C132.47 151.216 132.796 151.207 133.096 151.307L154.183 161.953C154.441 162.134 154.624 162.401 154.699 162.704C154.774 163.007 154.736 163.327 154.591 163.605C154.447 163.882 154.206 164.1 153.913 164.217C153.619 164.334 153.293 164.343 152.993 164.243Z" fill="#8A85E9"/>
<path d="M134.368 160.55L129.556 158.121C129.298 157.94 129.115 157.673 129.04 157.37C128.965 157.067 129.003 156.747 129.148 156.469C129.292 156.191 129.533 155.974 129.826 155.857C130.12 155.74 130.446 155.73 130.746 155.831L135.558 158.26C135.816 158.442 135.999 158.708 136.074 159.011C136.149 159.314 136.111 159.634 135.966 159.912C135.822 160.19 135.581 160.407 135.288 160.524C134.994 160.641 134.668 160.651 134.368 160.55Z" fill="#8A85E9"/>
<path d="M140.541 169.377L127.206 162.645C126.948 162.464 126.765 162.197 126.69 161.894C126.615 161.591 126.653 161.271 126.797 160.993C126.942 160.716 127.182 160.498 127.476 160.381C127.769 160.264 128.096 160.255 128.395 160.355L141.731 167.088C141.988 167.269 142.172 167.535 142.247 167.838C142.322 168.142 142.283 168.461 142.139 168.739C141.995 169.017 141.754 169.234 141.461 169.351C141.167 169.469 140.841 169.478 140.541 169.377V169.377Z" fill="#8A85E9"/>
<path d="M161.338 148.181L140.251 137.535C139.993 137.354 139.81 137.087 139.735 136.784C139.66 136.481 139.698 136.161 139.842 135.883C139.987 135.606 140.228 135.388 140.521 135.271C140.815 135.154 141.141 135.145 141.441 135.245L162.527 145.891C162.785 146.072 162.968 146.339 163.043 146.642C163.118 146.945 163.08 147.265 162.936 147.543C162.792 147.82 162.551 148.038 162.257 148.155C161.964 148.272 161.638 148.281 161.338 148.181Z" fill="#8A85E9"/>
<path d="M142.713 144.489L137.901 142.059C137.643 141.878 137.46 141.612 137.385 141.308C137.31 141.005 137.348 140.685 137.492 140.408C137.636 140.13 137.877 139.913 138.171 139.795C138.464 139.678 138.791 139.669 139.09 139.769L143.903 142.199C144.16 142.38 144.343 142.646 144.418 142.95C144.493 143.253 144.455 143.573 144.311 143.85C144.167 144.128 143.926 144.345 143.632 144.463C143.339 144.58 143.013 144.589 142.713 144.489Z" fill="#8A85E9"/>
<path d="M148.885 153.316L135.55 146.583C135.292 146.402 135.109 146.136 135.034 145.832C134.959 145.529 134.997 145.209 135.142 144.932C135.286 144.654 135.527 144.436 135.82 144.319C136.114 144.202 136.44 144.193 136.74 144.293L150.075 151.026C150.333 151.207 150.516 151.473 150.591 151.777C150.666 152.08 150.628 152.4 150.484 152.677C150.339 152.955 150.098 153.172 149.805 153.29C149.512 153.407 149.185 153.416 148.885 153.316L148.885 153.316Z" fill="#8A85E9"/>
<path d="M118.173 154.041L110.256 124.989L131.411 121.042L130.273 140.983L158.068 169.196C159.539 169.137 160.997 169.501 162.262 170.244C163.527 170.987 164.546 172.076 165.193 173.38C165.841 174.684 166.09 176.146 165.91 177.586C165.73 179.027 165.128 180.385 164.178 181.495C163.229 182.605 161.972 183.418 160.562 183.836C159.151 184.253 157.648 184.258 156.235 183.848C154.822 183.438 153.561 182.632 152.605 181.527C151.649 180.423 151.04 179.068 150.851 177.628L118.173 154.041Z" fill="#A0616A"/>
<path d="M108.092 92.416C100.911 98.0042 110.127 129.262 110.127 129.262C111.554 127.718 113.212 150.533 114.957 149.756C119.913 147.548 128.999 139.935 132.501 140.555C134.505 140.91 132.406 125.464 132.406 125.464C132.406 125.464 132.02 116.608 131.295 105.223C131.15 102 130.181 98.8663 128.477 96.1124C126.773 93.3585 124.39 91.0743 121.55 89.4725C121.55 89.4725 115.272 86.8279 108.092 92.416Z" fill="#3F3D56"/>
<path d="M227.569 218.525L208.447 209.623C208.038 209.434 207.678 209.156 207.393 208.81C207.109 208.464 206.908 208.059 206.805 207.625C206.701 207.201 206.697 206.759 206.791 206.333C206.885 205.906 207.076 205.507 207.35 205.164C212.889 198.185 216.692 190.024 218.455 181.335C218.588 180.67 218.951 180.071 219.483 179.64C220.014 179.209 220.68 178.973 221.368 178.972C231.12 179.005 238.409 182.515 243.031 189.405C243.274 189.763 243.436 190.169 243.504 190.596C243.572 191.022 243.545 191.457 243.424 191.872C240.748 200.965 236.676 209.6 231.349 217.478C230.954 218.074 230.353 218.508 229.658 218.7C228.963 218.893 228.221 218.83 227.569 218.525Z" fill="#E6E6E6"/>
<path d="M233.194 206.04L218.573 199.234C218.209 199.065 217.929 198.76 217.793 198.387C217.657 198.014 217.677 197.603 217.849 197.244C218.021 196.885 218.33 196.609 218.709 196.475C219.087 196.341 219.504 196.361 219.868 196.53L234.489 203.336C234.669 203.42 234.83 203.538 234.964 203.684C235.098 203.829 235.202 203.999 235.269 204.184C235.336 204.369 235.366 204.565 235.356 204.761C235.346 204.957 235.298 205.149 235.213 205.327C235.128 205.504 235.008 205.664 234.86 205.796C234.713 205.927 234.54 206.029 234.353 206.096C234.165 206.162 233.967 206.191 233.768 206.182C233.569 206.172 233.374 206.124 233.194 206.04H233.194Z" fill="white"/>
<path d="M235.465 201.299L220.844 194.493C220.48 194.323 220.2 194.019 220.064 193.645C219.928 193.272 219.949 192.861 220.12 192.502C220.292 192.144 220.601 191.867 220.98 191.733C221.359 191.599 221.776 191.619 222.139 191.789L236.76 198.595C237.124 198.764 237.404 199.069 237.54 199.442C237.676 199.815 237.656 200.226 237.484 200.585C237.312 200.944 237.003 201.22 236.624 201.354C236.246 201.488 235.828 201.468 235.465 201.299V201.299Z" fill="white"/>
<path d="M215.929 52.4538L214.567 52.6008C208.499 29.0938 196.738 12.8084 180.552 5.5049C159.977 -3.77917 134.534 2.45526 108.912 23.06C83.1587 43.7699 60.3606 76.4826 44.7174 115.174L43.3969 114.578C59.1087 75.7179 82.0239 42.8471 107.921 22.0221C133.948 1.09174 159.91 -5.1884 181.024 4.33876C197.673 11.8516 209.743 28.4896 215.929 52.4538Z" fill="#F2F2F2"/>
<path d="M65.7792 83.0687C62.2201 90.4599 58.8348 98.1172 55.7172 105.828C37.7773 150.199 28.6862 195.514 29.4291 236.875L28.027 236.728C27.2833 195.212 36.4006 149.741 54.3967 105.232C57.5232 97.4997 60.9181 89.8207 64.4875 82.4087L65.7792 83.0687Z" fill="#F2F2F2"/>
<path d="M65.1062 113.557C61.5471 120.948 58.1618 128.605 55.0443 136.316C37.1044 180.687 28.0132 226.002 28.7561 267.363L27.354 267.216C26.6103 225.7 35.7277 180.23 53.7237 135.72C56.8502 127.988 60.2451 120.309 63.8145 112.897L65.1062 113.557Z" fill="#F2F2F2"/>
<path d="M27.4214 124.645C28.9714 122.348 28.054 119.061 25.3724 117.302C22.6907 115.543 19.2604 115.979 17.7105 118.276C16.1605 120.572 17.0779 123.86 19.7595 125.619C22.4411 127.377 25.8715 126.941 27.4214 124.645Z" fill="#CCCCCC"/>
<path d="M357.463 207.581C359.013 205.285 358.096 201.997 355.414 200.238C352.733 198.48 349.302 198.916 347.752 201.212C346.202 203.509 347.12 206.796 349.801 208.555C352.483 210.314 355.913 209.878 357.463 207.581Z" fill="#CCCCCC"/>
</g>
<defs>
<clipPath id="clip0_226_2260">
<rect width="434" height="347" fill="white" transform="translate(-3)"/>
</clipPath>
</defs>
</svg>
