<svg width="358" height="347" viewBox="0 0 358 347" fill="none" xmlns="http://www.w3.org/2000/svg">
<g clip-path="url(#clip0_226_1564)">
<path d="M133.395 155.45C133.545 155.358 133.692 155.263 133.836 155.164C134.206 153.178 134.576 151.193 134.945 149.207C137.121 151.742 141.4 151.264 143.087 148.297C137.205 134.225 129.47 121.225 120.142 109.732C118.108 107.214 116.967 103.949 116.934 100.552C116.902 97.1551 117.979 93.8625 119.964 91.296C119.999 91.2494 120.035 91.2024 120.07 91.1551C125.337 89.1599 130.325 86.335 134.884 82.7653C119.25 54.5949 89.4392 32.2154 82.3533 0C61.036 25.674 58.643 34.7162 37.3257 60.3902C37.3257 60.3902 17.1407 80.8176 12.7839 91.7956C13.8544 93.0567 23.4383 96.083 23.8068 98.5626C31.1157 99.2197 43.778 90.2351 43.778 90.2351C43.778 90.2351 16.1403 123.28 7.74923 143.635C6.99361 145.468 6.27595 147.561 6.90897 149.451C7.41436 150.96 9.22738 151.83 10.3951 151.231C9.00019 152.74 7.88021 154.538 7.09747 156.527C11.8691 160.144 18.9059 159.349 22.9385 154.737C21.7698 157.186 20.601 159.635 19.4323 162.084L19.4343 162.09C21.0133 162.668 22.4303 163.699 23.5454 165.08C24.6605 166.461 25.435 168.144 25.7925 169.963C26.1499 171.783 26.078 173.675 25.5837 175.454C25.0894 177.232 24.1898 178.836 22.974 180.105C15.7212 187.67 9.0941 195.622 6.66577 200.858C4.38134 205.785 27.8373 211.723 33.1132 211.48C38.389 211.236 43.3205 208.636 48.0855 206.085C47.8533 208.521 48.2689 210.981 49.28 213.153C51.8895 213.863 54.5993 213.982 57.2502 213.501C59.9011 213.02 62.4396 211.95 64.7166 210.354C64.4323 216.944 74.5599 219.553 76.8677 213.484C76.0019 217.051 80.2116 219.26 83.4578 219.907C92.7203 221.751 103.898 222.872 109.925 214.771C116.862 222.616 129.574 222.467 136.471 214.65C135.792 215.998 136.831 218.268 138.368 218.626C140.179 219.047 141.941 217.84 143.479 216.687C150.44 211.468 157.401 206.249 164.362 201.029L132.311 176.798C125.336 171.524 126.019 159.985 133.395 155.45Z" fill="#F2F2F2"/>
<path d="M79.6341 346.68H75.1069C72.9626 288.955 71.4184 233.716 75.1069 200.15H79.6341L79.6341 346.68Z" fill="#F2F2F2"/>
<path d="M312.667 334.659C312.967 334.674 313.263 334.586 313.516 334.406C313.77 334.226 313.968 333.963 314.083 333.653C314.199 333.343 314.227 333 314.163 332.672C314.099 332.343 313.947 332.044 313.727 331.816C313.69 331.652 313.664 331.534 313.627 331.369C313.64 331.334 313.653 331.298 313.667 331.262C313.968 330.463 314.474 329.781 315.12 329.303C315.766 328.825 316.523 328.572 317.297 328.575C318.071 328.578 318.827 328.838 319.47 329.321C320.113 329.805 320.614 330.491 320.91 331.292C322.095 334.492 323.603 337.698 323.975 341.082C324.138 342.577 324.069 344.094 323.771 345.563C326.554 338.755 327.999 331.356 328.008 323.867C328.008 321.988 327.915 320.11 327.729 318.243C327.575 316.712 327.361 315.191 327.088 313.682C325.597 305.493 322.394 297.818 317.744 291.286C315.494 289.909 313.674 287.791 312.529 285.218C312.115 284.294 311.822 283.306 311.66 282.287C311.913 282.324 312.171 282.348 312.425 282.366C312.504 282.371 312.588 282.376 312.667 282.38L312.697 282.382C312.976 282.396 313.252 282.319 313.493 282.161C313.734 282.003 313.93 281.77 314.055 281.49C314.181 281.21 314.232 280.896 314.202 280.585C314.172 280.273 314.062 279.978 313.886 279.735C313.777 279.583 313.667 279.432 313.557 279.281C313.391 279.048 313.22 278.819 313.054 278.586C313.035 278.563 313.017 278.54 313 278.516C312.808 278.25 312.617 277.988 312.425 277.722C312.775 277.114 313.245 276.604 313.799 276.233C315.717 274.973 318.364 275.846 319.75 277.792C321.141 279.739 321.403 282.469 320.92 284.901C320.445 286.97 319.66 288.934 318.598 290.708C318.702 290.857 318.81 291.002 318.914 291.151C320.816 293.894 322.474 296.84 323.863 299.945C323.525 296.466 323.929 292.946 325.04 289.676C326.167 286.628 328.278 284.061 330.138 281.427C332.371 278.262 336.951 279.643 337.344 283.655C337.348 283.694 337.352 283.733 337.356 283.771C337.079 283.946 336.809 284.132 336.545 284.328C336.212 284.577 335.955 284.933 335.806 285.349C335.657 285.764 335.623 286.221 335.71 286.659C335.796 287.096 335.999 287.494 336.29 287.801C336.582 288.107 336.949 288.308 337.344 288.376L337.385 288.383C337.286 289.499 337.112 290.606 336.864 291.693C336.146 294.726 334.877 297.561 333.135 300.019C331.394 302.477 329.219 304.505 326.747 305.976C326.584 306.069 326.426 306.163 326.264 306.251C327.66 310.689 328.536 315.311 328.869 320.002C329.058 322.77 329.047 325.55 328.836 328.316L328.848 328.217C329.381 325.142 330.844 322.367 332.99 320.362C336.177 317.426 340.679 316.345 344.117 313.985C344.482 313.721 344.907 313.581 345.341 313.58C345.776 313.579 346.201 313.717 346.568 313.978C346.934 314.239 347.226 314.612 347.41 315.053C347.594 315.495 347.661 315.986 347.604 316.468C347.599 316.503 347.595 316.537 347.59 316.572C347.077 316.806 346.578 317.075 346.096 317.379C345.82 317.554 345.549 317.739 345.285 317.935C344.952 318.184 344.695 318.54 344.546 318.956C344.397 319.372 344.364 319.829 344.45 320.266C344.536 320.704 344.739 321.102 345.03 321.408C345.322 321.715 345.689 321.915 346.084 321.984L346.125 321.991C346.154 321.995 346.179 322 346.208 322.005C345.332 324.35 344.103 326.508 342.575 328.385C340.686 330.658 338.404 332.474 335.868 333.722C333.331 334.97 330.594 335.624 327.825 335.644H327.82C327.069 339.308 325.979 342.875 324.57 346.286H312.958C312.916 346.142 312.879 345.992 312.842 345.847C313.916 345.923 314.995 345.851 316.055 345.633C315.193 344.447 314.332 343.252 313.47 342.067C313.451 342.044 313.433 342.021 313.416 341.997C312.979 341.39 312.538 340.788 312.101 340.181L312.1 340.18C312.077 338.32 312.268 336.464 312.667 334.659L312.667 334.659Z" fill="#F2F2F2"/>
<path d="M48.8064 334.659C48.5069 334.674 48.2104 334.586 47.9571 334.406C47.7037 334.226 47.5058 333.963 47.3902 333.653C47.2745 333.343 47.2466 333 47.3104 332.672C47.3742 332.343 47.5265 332.044 47.7466 331.816C47.7835 331.652 47.8099 331.534 47.8468 331.369C47.8336 331.334 47.8204 331.298 47.807 331.262C47.5053 330.463 46.9996 329.781 46.3537 329.303C45.7077 328.825 44.9501 328.572 44.1762 328.575C43.4022 328.578 42.6464 328.838 42.0036 329.321C41.3608 329.805 40.8597 330.49 40.5633 331.292C39.3785 334.492 37.8701 337.698 37.4987 341.082C37.3351 342.577 37.4041 344.093 37.7027 345.563C34.92 338.755 33.475 331.356 33.4657 323.867C33.4652 321.988 33.5583 320.11 33.7446 318.243C33.8986 316.711 34.1123 315.191 34.3856 313.682C35.877 305.493 39.0792 297.818 43.7292 291.286C45.9797 289.909 47.7998 287.791 48.9441 285.218C49.3587 284.294 49.6517 283.306 49.814 282.287C49.5601 282.324 49.3021 282.348 49.0482 282.366C48.9691 282.371 48.8859 282.376 48.8068 282.38L48.7769 282.382C48.4979 282.396 48.2212 282.319 47.9802 282.161C47.7391 282.003 47.544 281.77 47.4183 281.49C47.2925 281.21 47.2416 280.896 47.2715 280.584C47.3015 280.273 47.411 279.978 47.5871 279.735C47.6967 279.583 47.8063 279.432 47.9161 279.281C48.0826 279.048 48.2532 278.819 48.4197 278.586C48.4389 278.563 48.457 278.54 48.4738 278.516C48.6653 278.25 48.8567 277.988 49.0482 277.722C48.6987 277.114 48.2287 276.604 47.6747 276.233C45.756 274.973 43.109 275.846 41.7231 277.792C40.333 279.738 40.0708 282.469 40.5535 284.901C41.0283 286.97 41.8137 288.934 42.8759 290.708C42.7719 290.857 42.6637 291.002 42.5596 291.151C40.6576 293.894 38.9998 296.84 37.6101 299.945C37.9481 296.466 37.5447 292.946 36.4332 289.676C35.3067 286.628 33.1952 284.061 31.3358 281.427C29.1024 278.262 24.5226 279.643 24.1291 283.655C24.1253 283.694 24.1215 283.733 24.1179 283.771C24.3941 283.946 24.6644 284.132 24.929 284.328C25.2613 284.577 25.5187 284.933 25.6677 285.349C25.8166 285.764 25.85 286.221 25.7636 286.659C25.6772 287.096 25.4749 287.494 25.1832 287.801C24.8916 288.107 24.5242 288.308 24.1292 288.376L24.0888 288.383C24.1872 289.499 24.3611 290.606 24.609 291.693C25.3275 294.726 26.597 297.561 28.3381 300.019C30.0791 302.477 32.2541 304.505 34.7268 305.976C34.8891 306.069 35.0473 306.162 35.2096 306.251C33.8133 310.689 32.9375 315.311 32.6042 320.002C32.4155 322.77 32.4266 325.55 32.6375 328.315L32.625 328.217C32.0922 325.142 30.6295 322.367 28.4838 320.362C25.297 317.426 20.7945 316.344 17.3565 313.984C16.9911 313.721 16.5662 313.581 16.132 313.58C15.6978 313.579 15.2724 313.717 14.9058 313.978C14.5393 314.239 14.247 314.612 14.0634 315.053C13.8798 315.495 13.8125 315.986 13.8696 316.468C13.8742 316.503 13.8789 316.537 13.8836 316.571C14.3962 316.806 14.8952 317.075 15.3778 317.379C15.654 317.554 15.9243 317.739 16.1888 317.935C16.5211 318.184 16.7786 318.54 16.9275 318.956C17.0765 319.372 17.1099 319.829 17.0235 320.266C16.937 320.704 16.7347 321.102 16.4431 321.408C16.1515 321.715 15.7841 321.915 15.3891 321.984L15.3486 321.991C15.3195 321.995 15.2945 322 15.2654 322.005C16.1411 324.35 17.3702 326.508 18.8988 328.385C20.7872 330.658 23.0695 332.474 25.6058 333.722C28.1422 334.97 30.8791 335.624 33.6489 335.644H33.653C34.4049 339.308 35.4942 342.875 36.9035 346.286H48.5154C48.5571 346.141 48.5945 345.992 48.632 345.847C47.5572 345.923 46.4781 345.851 45.4189 345.633C46.2804 344.447 47.142 343.252 48.0035 342.066C48.0227 342.044 48.0408 342.021 48.0576 341.996C48.4946 341.39 48.9358 340.788 49.3728 340.181L49.373 340.18C49.3963 338.32 49.206 336.464 48.8068 334.659L48.8064 334.659Z" fill="#F2F2F2"/>
<path d="M220.261 274.915L217.246 276.248L241.8 346.12L244.815 344.787L220.261 274.915Z" fill="#E6E6E6"/>
<path d="M200.325 344.787L203.34 346.12L227.893 276.248L224.878 274.915L200.325 344.787Z" fill="#E6E6E6"/>
<path d="M221.31 287.686C233.141 287.686 242.731 283.528 242.731 278.399C242.731 273.27 233.141 269.112 221.31 269.112C209.479 269.112 199.888 273.27 199.888 278.399C199.888 283.528 209.479 287.686 221.31 287.686Z" fill="#E6E6E6"/>
<path d="M239.185 282.346L204.911 277.736C203.328 277.523 201.798 276.963 200.408 276.087C199.018 275.211 197.796 274.036 196.81 272.63C195.825 271.224 195.097 269.614 194.666 267.892C194.236 266.171 194.112 264.37 194.302 262.595C194.492 260.82 194.992 259.103 195.773 257.545C196.554 255.986 197.601 254.615 198.855 253.51C200.109 252.405 201.544 251.588 203.079 251.105C204.615 250.623 206.22 250.484 207.803 250.697L242.076 255.307C245.274 255.737 248.188 257.574 250.177 260.413C252.167 263.253 253.069 266.862 252.686 270.448C252.302 274.034 250.664 277.302 248.132 279.533C245.601 281.765 242.382 282.777 239.185 282.346V282.346Z" fill="#2F2E41"/>
<path d="M232.465 185.679L237.489 191.143L243.91 194.338C243.349 194.773 240.393 239.45 244.202 241.31C247.445 242.893 244.14 244.203 244.252 247.888C244.364 251.574 244.784 259.154 244.784 259.154C226.955 266.851 220.035 267.597 209.672 254.39C209.6 253.649 209.757 252.904 210.115 252.277C210.473 251.649 211.011 251.178 211.641 250.942C213.939 249.946 210.428 243.387 212.301 242.621C214.175 241.855 212.622 232.817 212.622 232.817L208.632 212.453L207.656 209.377L212.696 192.036L218.386 190.537L221.192 184.947L232.465 185.679Z" fill="#E6E6E6"/>
<path d="M165.299 226.946C165.845 226.444 166.482 226.082 167.166 225.886C167.849 225.691 168.563 225.665 169.256 225.812C169.95 225.959 170.606 226.275 171.179 226.737C171.752 227.199 172.227 227.797 172.572 228.487L189.458 225.114L185.932 234.295L170.437 236.091C169.364 236.663 168.142 236.775 167.001 236.404C165.86 236.032 164.88 235.205 164.246 234.078C163.613 232.95 163.37 231.602 163.564 230.287C163.759 228.973 164.376 227.784 165.299 226.946H165.299Z" fill="#A0616A"/>
<path d="M182.76 234.983C184.242 236.7 185.698 236.494 187.133 234.711L207.228 233.465L207.289 233.334C207.36 233.184 211.595 224.187 215.351 215.767C215.93 214.47 216.497 213.187 217.035 211.952C217.268 211.419 217.495 210.896 217.716 210.383C219.207 206.92 220.395 203.993 220.859 202.455C221.933 199.013 221.925 195.263 220.836 191.828L220.805 191.745L220.735 191.7C219.308 190.784 217.646 190.44 216.022 190.726C214.398 191.011 212.91 191.909 211.802 193.271C206.484 199.877 202.608 207.78 200.48 216.355L199.274 221.234L186.837 224.689C185.568 223.921 184.473 224.111 183.612 225.584L182.76 234.983Z" fill="#E6E6E6"/>
<path d="M202.283 327.387L206.551 331.754L223.602 315.371L217.303 308.925L202.283 327.387Z" fill="#FFB6B6"/>
<path d="M202.466 324.71L203.667 325.939L210.097 328.6L210.871 333.311L210.871 333.311C212.291 334.765 213.139 336.792 213.226 338.946C213.314 341.101 212.636 343.206 211.339 344.799L211.181 344.995L197.419 330.912L202.466 324.71Z" fill="#2F2E41"/>
<path d="M234.614 276.416L230.93 268.439C231.238 260.362 237.485 254.051 244.658 254.856C248.653 255.304 252.319 257.972 253.621 265.501C256.97 284.862 216.566 323.183 216.566 323.183L209.549 317.907L209.391 312.635L213.505 310.022L213.657 305.537L217.56 303.656L234.614 276.416Z" fill="#2F2E41"/>
<path d="M234.718 171.592C235.3 164.801 230.864 158.767 224.809 158.115C218.755 157.462 213.374 162.437 212.792 169.228C212.21 176.018 216.647 182.052 222.702 182.705C228.756 183.358 234.136 178.382 234.718 171.592Z" fill="#A0616A"/>
<path d="M232.623 326.175L227.801 329.744L213.233 310.581L220.35 305.315L232.623 326.175Z" fill="#FFB6B6"/>
<path d="M236.937 330.508L221.388 342.014L221.258 341.793C220.199 339.993 219.821 337.795 220.207 335.682C220.593 333.569 221.712 331.715 223.317 330.527L223.317 330.527L224.735 326.008L231.457 324.504L232.814 323.499L236.937 330.508Z" fill="#2F2E41"/>
<path d="M210.582 275.643L215.142 267.329C215.96 259.296 210.666 251.971 203.468 251.513C199.46 251.258 195.468 253.253 193.136 260.462C187.139 279.002 221.727 323.914 221.727 323.914L229.391 319.928L230.279 314.748L226.578 311.448L227.051 306.992L223.458 304.452L210.582 275.643Z" fill="#2F2E41"/>
<path d="M227.522 173.354C227.532 173.195 227.542 173.035 227.552 172.875C227.505 173.029 227.495 173.194 227.522 173.354V173.354Z" fill="#2F2E41"/>
<path d="M236.998 167.636C236.604 165.609 235.724 163.74 234.454 162.231C233.183 160.723 231.57 159.631 229.787 159.073C229.299 158.156 228.633 157.372 227.839 156.781C227.045 156.19 226.142 155.806 225.199 155.657C223.426 155.392 221.649 155.981 219.945 156.589C218.892 156.964 217.842 157.349 216.794 157.744C215.941 158.065 214.893 158.798 215.176 159.756C214.961 159.63 214.715 159.587 214.475 159.635C214.236 159.682 214.018 159.817 213.854 160.018C213.69 160.219 213.591 160.475 213.57 160.746C213.549 161.017 213.609 161.289 213.741 161.518C213.345 160.946 212.431 161.313 212.211 161.993C211.991 162.673 212.25 163.428 212.571 164.055C213.54 165.84 215.008 167.214 216.747 167.962C218.486 168.71 220.398 168.79 222.182 168.19C223.225 167.807 224.291 167.178 225.36 167.459C226.369 167.725 227.095 168.774 227.382 169.89C227.592 170.867 227.649 171.876 227.552 172.875C227.688 172.52 227.944 172.241 228.263 172.097C228.583 171.954 228.94 171.959 229.256 172.11C230.018 172.536 230.292 173.66 230.103 174.591C229.914 175.522 227.934 179.133 227.41 179.886C226.837 180.597 226.415 181.445 226.177 182.365C228.055 182.041 229.933 181.717 231.811 181.393L231.913 181.508C234.824 178.971 237.735 171.688 236.998 167.636Z" fill="#2F2E41"/>
<path d="M210.016 254.629C210.276 253.894 210.676 253.231 211.189 252.687C211.702 252.144 212.315 251.734 212.985 251.485C213.655 251.236 214.365 251.155 215.066 251.247C215.767 251.339 216.441 251.603 217.041 252.019L230.345 239.877L231.236 249.823L218.466 259.829C217.776 260.913 216.755 261.676 215.596 261.973C214.438 262.269 213.223 262.079 212.182 261.438C211.14 260.797 210.344 259.75 209.945 258.495C209.546 257.241 209.571 255.865 210.016 254.63L210.016 254.629Z" fill="#A0616A"/>
<path d="M231.065 251.668C232.668 252.311 233.908 251.833 234.414 249.094L249.496 237.506L249.493 237.358C251.46 237.187 251.01 204.569 247.993 202.973C247.442 199.38 245.812 196.105 243.373 193.694L243.31 193.639L243.23 193.637C241.586 193.613 239.984 194.217 238.688 195.351C237.392 196.485 236.479 198.08 236.099 199.874C234.309 208.545 234.34 217.564 236.19 226.219L237.248 231.141L230.664 237.391C228.845 236.857 228.038 237.678 228.171 239.758L231.065 251.668Z" fill="#E6E6E6"/>
<path d="M116.019 279.682L113.206 280.925L136.116 346.12L138.929 344.877L116.019 279.682Z" fill="#E6E6E6"/>
<path d="M97.4174 344.877L100.23 346.12L123.14 280.925L120.327 279.682L97.4174 344.877Z" fill="#E6E6E6"/>
<path d="M116.997 291.597C128.036 291.597 136.985 287.718 136.985 282.932C136.985 278.147 128.036 274.267 116.997 274.267C105.958 274.267 97.0096 278.147 97.0096 282.932C97.0096 287.718 105.958 291.597 116.997 291.597Z" fill="#E6E6E6"/>
<path d="M104.87 183.073C105.323 186.251 106.882 189.097 109.206 190.985C111.529 192.873 114.426 193.65 117.26 193.143C117.581 193.086 117.897 193.012 118.209 192.923C120.828 192.18 123.104 190.365 124.59 187.835C126.075 185.305 126.663 182.243 126.238 179.252C126.104 178.299 125.867 177.368 125.535 176.479C124.513 173.74 122.632 171.517 120.247 170.229C117.862 168.941 115.139 168.678 112.593 169.491C110.047 170.303 107.855 172.134 106.431 174.637C105.008 177.14 104.453 180.142 104.87 183.073H104.87Z" fill="#FFB6B6"/>
<path d="M163.203 336.487L168.063 334.867L164.848 312.589L157.676 314.981L163.203 336.487Z" fill="#FFB6B6"/>
<path d="M133.402 327.694C133.698 327.983 133.995 328.268 134.294 328.554C134.891 329.125 135.494 329.69 136.099 330.248C136.403 330.527 136.711 330.807 137.016 331.082L137.014 331.093L137.033 331.1L137.039 331.105L137.53 331.337L138.571 329.295L139.05 328.354L139.728 327.021L140.971 324.583L147.511 311.746L140.621 308.489L140.179 309.673L140.175 309.672L139.956 310.259L135.842 321.208L135.002 323.446L134.976 323.514L134.471 324.851L134.035 326.01L133.549 327.304L133.402 327.694Z" fill="#FFB6B6"/>
<path d="M97.4035 272.138C97.7424 273.037 98.0918 273.935 98.4456 274.825C99.1026 276.483 99.786 278.122 100.496 279.744C100.495 279.748 100.498 279.748 100.501 279.752C100.957 280.402 101.479 280.99 102.056 281.505C102.08 281.532 102.108 281.552 102.131 281.575C102.558 281.948 103.023 282.26 103.517 282.504C103.696 282.589 103.877 282.675 104.056 282.76C104.701 283.058 105.343 283.328 105.984 283.58C107.126 284.023 108.265 284.398 109.403 284.706C109.495 284.733 109.586 284.757 109.678 284.781C114.371 286.015 119.082 286.207 124.051 286.034C126.505 285.951 129.023 285.776 131.63 285.595C132.482 285.532 133.337 285.475 134.202 285.418C134.268 285.415 134.337 285.408 134.405 285.405C135.641 285.323 136.896 285.249 138.181 285.183C139.798 285.1 141.463 285.038 143.189 285.005L142.695 287.636C142.307 289.66 141.645 291.604 140.731 293.402C139.682 295.627 138.852 297.386 139.503 301.473L139.815 303.451C139.384 304.329 139.141 305.307 139.104 306.308C139.067 307.31 139.237 308.307 139.602 309.222L139.69 309.44L132.947 322.245L132.51 323.075L134.975 323.513L138.007 324.056L143.146 324.969L152.918 309.6L153.386 308.867L153.392 308.826L157.154 276.625C157.184 276.341 157.204 276.051 157.211 275.762C157.257 274.453 157.071 273.146 156.662 271.918C156.253 270.69 155.63 269.566 154.83 268.611C154.064 267.689 153.142 266.947 152.118 266.429C151.094 265.91 149.989 265.625 148.866 265.59L146.276 265.508L140.983 265.338L137.255 265.222L137.181 265.22L126.187 264.869L125.913 261.197L125.779 261.112L121.506 258.442L106.73 249.207L106.692 249.185L105.72 248.577L105.566 248.779C105.52 248.839 105.474 248.9 105.431 248.961C104.122 250.83 102.986 252.845 102.042 254.973C100.469 258.444 99.0733 262.013 97.8622 265.662C97.8092 265.821 97.7617 265.965 97.7195 266.095L97.7038 266.134C97.6849 266.195 97.6725 266.235 97.6676 266.246C97.0674 267.871 97.0284 269.977 97.4035 272.138Z" fill="#2F2E41"/>
<path d="M98.4102 260.203C98.4937 259.974 98.5909 259.743 98.6903 259.521C99.4678 257.839 100.327 256.206 101.265 254.63C102.322 252.834 103.553 250.929 104.988 248.883C105.682 247.893 106.424 246.866 107.212 245.803C107.607 245.271 108.016 244.729 108.438 244.179C108.455 244.153 108.474 244.128 108.493 244.105L108.614 243.943L123.806 249.03L128.251 250.909L129.353 254.215L129.323 255.029C129.326 255.03 129.326 255.03 129.322 255.033L129.247 257.255L129.246 257.259L129.148 260.194L129.175 260.195L137.928 260.471L146.948 260.758L151.793 260.913C152.916 260.947 154.022 261.232 155.046 261.751C156.07 262.269 156.991 263.011 157.757 263.933C158.558 264.888 159.18 266.012 159.589 267.24C159.998 268.468 160.184 269.775 160.138 271.085C160.131 271.35 160.113 271.622 160.086 271.888L162.884 284.587C164.559 292.182 165.202 300.018 164.792 307.828L166.414 320.189L165.939 320.154L158.875 319.643L157.01 319.51L153.898 312.164C153.544 311.326 153.215 310.471 152.92 309.602C152.432 308.182 152.024 306.729 151.701 305.251L146.245 280.327C145.55 280.337 144.862 280.342 144.182 280.342C141.034 280.355 138.024 280.287 135.15 280.137C125.807 279.657 117.845 278.334 110.906 276.102C108.956 275.477 107.086 274.778 105.294 274.006C104.636 273.725 103.989 273.434 103.353 273.131C103.203 273.063 103.056 272.995 102.909 272.923C101.594 272.283 100.443 271.283 99.5616 270.015C98.6801 268.746 98.0963 267.251 97.8635 265.664C97.5782 263.822 97.7679 261.928 98.4102 260.203V260.203Z" fill="#2F2E41"/>
<path d="M162.249 332.773L167.507 331.014L168.332 330.737L169.08 334.326L177.329 337.954C177.737 338.133 178.083 338.453 178.317 338.869C178.551 339.284 178.66 339.772 178.629 340.262C178.598 340.752 178.428 341.218 178.144 341.592C177.859 341.966 177.476 342.228 177.05 342.34L168.159 344.678L165.886 341.532L166.029 345.238L162.68 346.12L160.971 333.202L162.249 332.773Z" fill="#2F2E41"/>
<path d="M132.947 322.245L132.51 323.075L132.822 323.131L132.947 322.245Z" fill="#2F2E41"/>
<path d="M134.497 323.622L139.337 326.522L140.097 326.976L138.377 330.116L141.962 339.204C142.14 339.653 142.185 340.154 142.09 340.634C141.996 341.113 141.767 341.547 141.438 341.87C141.108 342.194 140.695 342.391 140.258 342.432C139.822 342.474 139.385 342.357 139.012 342.1L131.227 336.746L131.586 332.716L129.362 335.463L126.43 333.447L133.32 322.918L134.497 323.622Z" fill="#2F2E41"/>
<path d="M168.349 253.197C167.834 253.374 167.291 253.422 166.758 253.338C166.225 253.254 165.715 253.04 165.263 252.711C164.812 252.382 164.43 251.946 164.146 251.433C163.861 250.921 163.68 250.345 163.615 249.745L150.825 246.637L155.686 241.304L167.086 245.073C167.991 245.018 168.883 245.337 169.592 245.969C170.302 246.602 170.78 247.505 170.935 248.506C171.091 249.508 170.913 250.538 170.437 251.403C169.96 252.268 169.217 252.906 168.349 253.197V253.197Z" fill="#FFB6B6"/>
<path d="M130.787 246.497L107.179 223.87C105.309 222.075 104.151 219.521 103.959 216.768C103.766 214.016 104.555 211.291 106.152 209.19V209.19C107.038 208.028 108.14 207.099 109.382 206.469C110.623 205.839 111.973 205.523 113.336 205.543C114.699 205.564 116.041 205.921 117.267 206.589C118.492 207.257 119.572 208.219 120.429 209.407L137.766 233.45L161.02 240.491L160.417 249.105L130.787 246.497Z" fill="#8A85E9"/>
<path d="M103.254 223.268L102.754 243.804C95.8731 256.841 95.0905 263.172 96.9951 266.548L128.931 254.503L129.408 253.226L127.243 244.504L129.922 235.036C130.393 234.047 136.797 227.97 130.794 216.441L118.718 198.196L114.352 197.802C112.757 202.394 110.325 204.672 107.451 205.731C100.952 212.411 101.906 213.498 103.254 223.268Z" fill="#8A85E9"/>
<path d="M127.643 174.323C127.475 174.857 127.211 175.345 126.867 175.759C126.523 176.172 126.107 176.502 125.644 176.727C124.906 175.946 124.108 175.24 123.259 174.617C123.628 175.457 123.93 176.332 124.163 177.232C124.146 177.236 124.132 177.236 124.116 177.24C122.584 177.469 121.045 177.044 119.547 176.622L119.755 176.836C119.768 178.183 119.438 179.506 118.804 180.65C118.169 181.794 117.257 182.711 116.174 183.294C114.975 183.912 113.393 184.341 113.097 185.78C112.835 187.054 113.819 188.195 114.767 188.953C115.714 189.71 116.823 190.539 116.977 191.835C117.226 193.945 114.814 195.282 114.404 197.358C114.048 199.136 115.274 200.831 116.621 201.849C117.968 202.866 119.554 203.567 120.595 204.968C122.439 207.451 121.845 211.411 119.943 213.841C119.738 214.105 119.518 214.356 119.285 214.59C118.764 213.853 118.195 213.16 117.582 212.518C116.844 211.737 116.046 211.031 115.197 210.408C115.566 211.249 115.868 212.123 116.1 213.023C116.404 214.177 116.596 215.364 116.675 216.564C115.305 217.294 113.869 217.853 112.392 218.233C108.672 219.254 104.844 219.696 101.017 219.545C99.269 219.514 97.5311 219.238 95.844 218.723C96.6163 215.986 96.8422 213.092 96.5057 210.246C95.5488 212.747 94.068 214.952 92.1891 216.674C90.6136 215.284 89.4445 213.313 89.2497 211.094C89.0112 208.366 90.2339 205.759 91.5911 203.48C92.9516 201.201 94.517 198.978 95.115 196.322C95.9884 192.449 94.6547 188.421 94.4834 184.432C94.3749 181.923 94.7295 179.415 95.525 177.067C96.3205 174.719 97.5398 172.58 99.1065 170.785C100.673 168.99 102.554 167.577 104.63 166.634C106.706 165.692 108.933 165.24 111.172 165.308C113.191 165.44 115.194 165.784 117.155 166.333C118.22 166.589 119.282 166.849 120.346 167.105C121.663 167.379 122.954 167.79 124.203 168.333C125.291 168.81 126.248 169.601 126.974 170.628C127.332 171.145 127.578 171.747 127.694 172.388C127.81 173.029 127.792 173.691 127.643 174.323Z" fill="#2F2E41"/>
<path d="M267.863 249.629H85.3857V249.402C85.3882 246.944 86.2597 244.588 87.8091 242.851C89.3584 241.113 91.4591 240.136 93.6503 240.133H259.598C261.79 240.136 263.89 241.113 265.44 242.851C266.989 244.588 267.86 246.944 267.863 249.402V249.629Z" fill="#CCCCCC"/>
<path d="M281.362 344.932L278.549 346.226L255.639 248.199L258.452 246.905L281.362 344.932Z" fill="#CCCCCC"/>
<path d="M239.851 344.932L242.664 346.226L265.573 248.199L262.76 246.905L239.851 344.932Z" fill="#CCCCCC"/>
<path d="M113.062 344.932L110.249 346.226L87.3398 248.199L90.1525 246.905L113.062 344.932Z" fill="#CCCCCC"/>
<path d="M71.5511 344.932L74.3639 346.226L97.2735 248.199L94.4607 246.905L71.5511 344.932Z" fill="#CCCCCC"/>
<path d="M197.444 232.959C197.498 232.775 197.517 232.58 197.499 232.386C197.48 232.193 197.425 232.007 197.337 231.839C197.249 231.672 197.13 231.528 196.989 231.416C196.847 231.305 196.685 231.228 196.515 231.193C196.452 231.178 196.388 231.169 196.323 231.166L188.557 230.941C188.383 230.939 188.21 230.978 188.05 231.056C187.89 231.133 187.747 231.247 187.628 231.391C187.52 231.365 187.409 231.352 187.297 231.352C187.056 231.345 186.815 231.392 186.589 231.489C186.363 231.586 186.157 231.732 185.981 231.919C185.806 232.106 185.665 232.33 185.567 232.578C185.468 232.826 185.415 233.093 185.409 233.365C185.403 233.636 185.444 233.906 185.531 234.159C185.618 234.412 185.749 234.644 185.916 234.84C186.083 235.037 186.282 235.194 186.504 235.304C186.725 235.414 186.963 235.474 187.205 235.481C187.483 235.487 187.759 235.423 188.013 235.295L188.727 243.863C188.796 244.144 188.944 244.394 189.149 244.573C189.355 244.752 189.607 244.852 189.867 244.858L194.916 245.004C195.174 245.009 195.427 244.922 195.639 244.756C195.851 244.59 196.01 244.352 196.094 244.078L197.444 232.959ZM187.221 234.89C186.873 234.88 186.542 234.715 186.302 234.431C186.061 234.148 185.931 233.77 185.939 233.379C185.947 232.988 186.093 232.617 186.345 232.346C186.597 232.076 186.934 231.929 187.283 231.937C187.307 231.937 187.329 231.95 187.354 231.95C187.299 232.186 187.3 232.435 187.358 232.671L187.866 234.713C187.669 234.837 187.446 234.898 187.221 234.89V234.89Z" fill="#8A85E9"/>
<path d="M196.515 231.193C196.349 232.254 194.489 233 192.252 232.87C190.195 232.764 188.514 231.954 188.206 230.994C188.32 230.956 188.438 230.938 188.557 230.941L196.323 231.166C196.388 231.169 196.452 231.178 196.515 231.193Z" fill="white"/>
<path d="M171.577 229.568C171.632 229.384 171.651 229.189 171.632 228.995C171.614 228.802 171.559 228.616 171.471 228.448C171.383 228.281 171.264 228.137 171.122 228.025C170.98 227.914 170.819 227.838 170.648 227.802C170.585 227.787 170.521 227.778 170.457 227.775L162.691 227.55C162.516 227.548 162.344 227.587 162.184 227.665C162.024 227.742 161.88 227.856 161.762 228C161.653 227.974 161.542 227.961 161.431 227.961C160.943 227.948 160.47 228.153 160.117 228.53C159.764 228.907 159.558 229.427 159.546 229.974C159.534 230.521 159.716 231.051 160.052 231.448C160.388 231.845 160.851 232.076 161.338 232.09C161.617 232.096 161.893 232.033 162.146 231.904L162.861 240.472C162.929 240.754 163.077 241.003 163.283 241.182C163.488 241.362 163.74 241.462 164 241.467L169.049 241.613C169.308 241.618 169.561 241.531 169.773 241.365C169.984 241.199 170.144 240.961 170.228 240.687L171.577 229.568ZM161.355 231.499C161.006 231.489 160.675 231.324 160.435 231.041C160.195 230.757 160.064 230.379 160.073 229.988C160.081 229.597 160.227 229.226 160.479 228.955C160.731 228.685 161.068 228.538 161.416 228.546C161.441 228.546 161.463 228.559 161.487 228.559C161.432 228.796 161.433 229.044 161.491 229.28L162 231.322C161.803 231.446 161.58 231.507 161.355 231.499V231.499Z" fill="#8A85E9"/>
<path d="M170.648 227.802C170.483 228.863 168.623 229.609 166.386 229.479C164.329 229.373 162.647 228.563 162.339 227.603C162.453 227.565 162.572 227.548 162.691 227.551L170.457 227.776C170.521 227.778 170.585 227.787 170.648 227.802V227.802Z" fill="white"/>
<path d="M167.769 244.013C167.274 244.249 166.739 244.361 166.201 244.34C165.662 244.319 165.135 244.166 164.655 243.892C164.176 243.618 163.756 243.229 163.424 242.753C163.093 242.277 162.859 241.726 162.738 241.137L149.729 239.553L154.063 233.676L165.753 236.082C166.648 235.92 167.565 236.132 168.329 236.678C169.094 237.224 169.654 238.065 169.902 239.043C170.151 240.02 170.071 241.066 169.678 241.982C169.285 242.898 168.606 243.621 167.769 244.013V244.013Z" fill="#FFB6B6"/>
<path d="M129.788 241.773L104.191 222.053C102.164 220.487 100.773 218.084 100.324 215.369C99.8749 212.655 100.404 209.852 101.796 207.575V207.575C102.567 206.315 103.577 205.261 104.753 204.488C105.928 203.715 107.241 203.242 108.598 203.102C109.955 202.962 111.323 203.159 112.605 203.679C113.887 204.198 115.05 205.028 116.014 206.109L135.507 227.976L159.292 232.24L159.499 240.877L129.788 241.773Z" fill="#8A85E9"/>
<path d="M356.528 346.86L0.481895 347C0.354333 347 0.232125 346.942 0.142055 346.841C0.0519858 346.74 0.00140381 346.603 0.00140381 346.459C0.00140381 346.316 0.0519858 346.179 0.142055 346.078C0.232125 345.977 0.354333 345.919 0.481895 345.919L356.528 345.78C356.656 345.78 356.778 345.836 356.869 345.938C356.959 346.039 357.01 346.177 357.01 346.32C357.01 346.463 356.959 346.601 356.869 346.702C356.778 346.804 356.656 346.86 356.528 346.86V346.86Z" fill="#CACACA"/>
<path d="M186.58 61.0575C194.546 61.0575 201.004 53.8149 201.004 44.8808C201.004 35.9467 194.546 28.7041 186.58 28.7041C178.614 28.7041 172.156 35.9467 172.156 44.8808C172.156 53.8149 178.614 61.0575 186.58 61.0575Z" fill="#FD6584"/>
<path d="M218.864 37.2219C218.03 34.0879 215.673 32.0419 212.825 31.5931C212.794 31.5881 212.764 31.5947 212.733 31.5924C212.693 31.5786 212.651 31.568 212.61 31.5606C208.575 31.0092 204.494 32.0057 201.029 34.3878C197.69 36.7254 193.8 37.7826 189.867 37.9544C189.844 37.9554 189.821 37.9565 189.798 37.9578C188.336 38.0671 186.94 38.6789 185.799 39.71C184.658 40.7411 183.829 42.1414 183.423 43.7203C183.38 43.9135 183.393 44.1172 183.46 44.3017C183.527 44.4862 183.644 44.6421 183.796 44.7466C184.231 45.1607 184.747 45.4545 185.303 45.6045C186.5 45.8891 187.703 46.1498 188.909 46.3867C191.263 46.8487 193.63 47.2223 196.008 47.5073C200.837 48.0877 205.696 48.2936 210.55 48.1238C212.166 48.0673 213.726 48.0071 215.207 47.2069C216.284 46.61 217.205 45.7089 217.878 44.5923C218.513 43.5191 218.929 42.303 219.1 41.0297C219.27 39.7564 219.19 38.4566 218.864 37.2219V37.2219Z" fill="#F0F0F0"/>
<path d="M273.913 96.336C274.586 97.4526 275.507 98.3536 276.584 98.9506C278.065 99.7508 279.624 99.8109 281.241 99.8674C286.095 100.037 290.954 99.8313 295.782 99.251C298.159 98.9652 300.525 98.5916 302.882 98.1303C304.088 97.8936 305.29 97.6329 306.488 97.3481C307.044 97.1981 307.56 96.9043 307.995 96.4903C308.147 96.3857 308.264 96.2299 308.331 96.0454C308.398 95.8609 308.411 95.6572 308.368 95.464C307.962 93.8851 307.133 92.4848 305.992 91.4537C304.851 90.4226 303.455 89.8107 301.993 89.7015C301.97 89.7002 301.947 89.699 301.924 89.698C297.991 89.5263 294.101 88.469 290.762 86.1315C287.297 83.7493 283.215 82.7528 279.181 83.3043C279.14 83.3116 279.098 83.3222 279.058 83.3361C279.027 83.3383 278.997 83.3318 278.966 83.3367C276.118 83.7856 273.761 85.8315 272.927 88.9656C272.601 90.2003 272.521 91.5 272.691 92.7734C272.861 94.0467 273.278 95.2627 273.913 96.336V96.336Z" fill="#F0F0F0"/>
<path d="M188.885 58.7907C188.051 55.6567 185.694 53.6108 182.846 53.1619C182.815 53.157 182.785 53.1635 182.754 53.1613C182.713 53.1474 182.672 53.1368 182.631 53.1295C178.596 52.578 174.514 53.5745 171.049 55.9567C167.711 58.2942 163.821 59.3517 159.889 59.5232C159.865 59.5242 159.842 59.5254 159.819 59.5267C158.357 59.636 156.961 60.2478 155.82 61.2789C154.679 62.31 153.85 63.7103 153.444 65.2892C153.401 65.4824 153.414 65.6861 153.481 65.8706C153.548 66.0551 153.665 66.2109 153.816 66.3155C154.252 66.7295 154.768 67.0234 155.323 67.1734C156.521 67.458 157.724 67.7187 158.93 67.9556C161.284 68.4176 163.651 68.7911 166.029 69.0762C170.858 69.6566 175.717 69.8625 180.571 69.6927C182.187 69.6362 183.746 69.576 185.228 68.7757C186.305 68.1788 187.226 67.2778 187.899 66.1612C188.533 65.0879 188.95 63.8719 189.121 62.5985C189.291 61.3252 189.211 60.0255 188.885 58.7907V58.7907Z" fill="#F0F0F0"/>
</g>
<defs>
<clipPath id="clip0_226_1564">
<rect width="357.01" height="347" fill="white"/>
</clipPath>
</defs>
</svg>
